/* XPM */
static char *result[] = {
/* columns rows colors chars-per-pixel */
"50 50 195 2 ",
"   c #F6F6F6",
".  c #F6F5F5",
"X  c #EDEBE5",
"o  c #F5F4F4",
"O  c #EFEDE8",
"+  c #F2F1ED",
"@  c #F3F2EE",
"#  c #F0EEE7",
"$  c gray96",
"%  c #F5F6F5",
"&  c #F3F3F1",
"*  c #F4F4F4",
"=  c #F3F3F3",
"-  c #F1F2F0",
";  c #F2F2F1",
":  c #F4F4F3",
">  c #E5E4DD",
",  c #EDEDEC",
"<  c #EEEEEE",
"1  c #F1F1F1",
"2  c gray94",
"3  c gray95",
"4  c #EFEFEF",
"5  c #F6F6F5",
"6  c #E9E8E2",
"7  c #EEEDE9",
"8  c #EEEEED",
"9  c #F2F2EF",
"0  c black",
"q  c #EFECE6",
"w  c #E6E0D2",
"e  c #E9E3D9",
"r  c #F5F5F2",
"t  c #F0EEE9",
"y  c #E7E4D9",
"u  c #F4F4F2",
"i  c gray74",
"p  c #EFECE5",
"a  c #E3D9C8",
"s  c #F2F0ED",
"d  c #EFEFEA",
"f  c #F3F3F0",
"g  c #F0F0ED",
"h  c #F4F3F1",
"j  c #EDEBE3",
"k  c #F0EFE9",
"l  c #F0EFEB",
"z  c #EDEAE4",
"x  c gray98",
"c  c #F4F3F2",
"v  c #ECEAE2",
"b  c #EDEBE4",
"n  c #EEECE7",
"m  c #F1EFEB",
"M  c #F1F0EE",
"N  c #ECEAE3",
"B  c #F4F3F0",
"V  c #F3F3F2",
"C  c #EBE7DE",
"Z  c #EAE5DB",
"A  c #EFEDE9",
"S  c #F3F1EF",
"D  c #EEECE6",
"F  c #F0EFEA",
"G  c #F1F2EF",
"H  c #F1F0EC",
"J  c #E3DCCE",
"K  c #E6E1D4",
"L  c #E6E0D3",
"P  c #ECEAE0",
"I  c #F2F2ED",
"U  c #F1EFE9",
"Y  c #E2D9C9",
"T  c #F1F1ED",
"R  c #EFEFEB",
"E  c #F3F2F2",
"W  c #F2F1EE",
"Q  c #030202",
"!  c #F0EEEA",
"~  c #EAE5DC",
"^  c #F0EEE8",
"/  c #F5F4F3",
"(  c #F3F2EF",
")  c #E8E4DA",
"_  c #FFB0FC",
"`  c #F6F5F4",
"'  c #E9E6DD",
"]  c #F4F1EF",
"[  c #F2F1F1",
"{  c #F0F0EE",
"}  c #E8E5DC",
"|  c #EBE7DD",
" . c #F0EFEC",
".. c #ECE8E0",
"X. c #E9E6DF",
"o. c #ECEBE7",
"O. c #EAE7E2",
"+. c #E4E0D4",
"@. c #E9E4D8",
"#. c #E8E3D9",
"$. c #EBEAE7",
"%. c #EAE8E4",
"&. c #EDECE9",
"*. c #F5F4F5",
"=. c #EEEEEC",
"-. c #F5F5F4",
";. c #EFEDE6",
":. c #E8E4D8",
">. c #ECE9DF",
",. c #EEEAE2",
"<. c #F0F0EB",
"1. c #EEECE4",
"2. c #EEECE3",
"3. c #EDEAE0",
"4. c #EBE7DC",
"5. c #F5F4F2",
"6. c #F4F5F3",
"7. c #F4F5F2",
"8. c #F2F1EF",
"9. c #F1F1EF",
"0. c #EFEEE9",
"q. c #F2F0EF",
"w. c #F1EFEC",
"e. c #ECEBE3",
"r. c #F2EFED",
"t. c #F1EFED",
"y. c #EDEBE7",
"u. c #F2F1F0",
"i. c #EEEEE9",
"p. c #ECE9E1",
"a. c #F3F2F1",
"s. c #EBEBE7",
"d. c #EFEEEC",
"f. c #ECEAE7",
"g. c #ECECEA",
"h. c #E9E7E1",
"j. c #EAE4DA",
"k. c #EDE9E3",
"l. c #EEEBE6",
"z. c #F0EDE8",
"x. c #F2F0EE",
"c. c #E5DFD0",
"v. c #E7E2D4",
"b. c #ECE9E0",
"n. c #F1F1EE",
"m. c #F3F2F0",
"M. c #EBE6DC",
"N. c #EBE5DB",
"B. c #E8E2D5",
"V. c #EDE9E0",
"C. c #F4F5F4",
"Z. c #EDEAE2",
"A. c #EDEAE3",
"S. c #E6DFCE",
"D. c #E3DCCB",
"F. c #F2F3F0",
"G. c #EEEBE4",
"H. c #ECE8DF",
"J. c #EAE5DA",
"K. c #F4F2F0",
"L. c #F1F0ED",
"P. c #F2F2F0",
"I. c #EAE7DD",
"U. c #F3F4F3",
"Y. c #EAE6DC",
"T. c #ECEAE5",
"R. c #F2F3F1",
"E. c #F1F0EB",
"W. c #ECEBE4",
"Q. c #EDECE5",
"!. c #EBE9E3",
"~. c #F3F1F0",
"^. c #E9E4D9",
"/. c #F0EFED",
"(. c #ECEBE5",
"). c #EEEBE3",
"_. c #ECE8DE",
"`. c #EBE7DB",
"'. c #F0EFF0",
"]. c #F2EFEB",
"[. c #EDEBE2",
"{. c #EDECE7",
"}. c #F4F3F3",
"|. c #F5F6F4",
" X c #E0DFDE",
".X c #E4E3E1",
"XX c #E3E2E1",
"oX c #E3E3E2",
"OX c #F0F1EC",
"+X c #F4F4F1",
"@X c gray97",
"#X c #E0E2E1",
"$X c gray90",
"%X c #E5E5E4",
"&X c #EAE9E4",
/* pixels */
"                                                                                    . X o           ",
"                                                                                      O +           ",
"                                                                                      @ #           ",
"                          $ $         $                   $ $                         % & * $ $     ",
"$ = $ $                 $ $ * * $ $ * $ $                 * $ * * $ * * $                 * * * * $ ",
"- ; * $                 $ * * = * $ * * $                 * * * * * * $ * $                 : * * * ",
"> , < 1                 $ 2 2 < 3 2 < < =   $             3 2 4 < 1 4 < 4 $               5 6 7 8 2 ",
"9 X &                 0 0 0 0 0 0 0 0                         0 0 0 0 0 0 0 0               q w e r ",
"  t y u         0 0 0 i i i i i i i i 0 0 0             0 0 0 i i i i i i i i 0 0 0           p a s ",
"d $ f g         0 0 0 i i i i i i i i 0 0 0             0 0 0 i i i i i i i i 0 0 0           h j k ",
"l z u * $   0 0 i i i x x x x x x x x i i i 0 0 0 0 0 0 i i i x x x x x x x x i i i 0 0       c v b ",
"= n b m ; 0 i i x x x x x x x x x x x x x x i i i i i i x x x x x x x x x x x x x x i i 0   $ M N B ",
"* V C Z A 0 i i x x x x x x x x x x x x x x i i i i i i x x x x x x x x x x x x x x i i 0 S D F G $ ",
"* * H J K 0 x x x x x x x x x x x x x x x x x i i i i x x x x x x x x x x x x x x x x x 0 L P I : o ",
"$   : U Y 0 x x x x x x x x x x x x x x x x x x x x x x x x x x x x x x x x x x x x x x 0 ; T R E o ",
"    $ * q 0 x x x x x x x x x x x x x x x x x x x x x x x x x x x x x x x x x x x x x x 0 * . O h   ",
"        = 0 x x x x x x x x x x x x x x x x x x x x x x x x x x x x x x x x x x x x x x 0 =   h W   ",
"          0 x x x x x x x x x x x x x x x x x x x x x x x x x x x x x x x x x x x x x x 0     % W 5 ",
"          0 x x x x x x x x x x Q Q Q x x x x x x x x x x x x Q Q Q x x x x x x x x x x 0       + g ",
"          0 x x x x x x x x x x Q Q Q x x x x x x x x x x x x Q Q Q x x x x x x x x i i 0       & g ",
"          0 x x x x x x x x x x Q Q Q x x x x x x x x x x x x Q Q Q x x x x x x x x i i 0       s ! ",
"          0 x x x x x x x x x x       x x x x x x x x x x x ~ ^ /   x x x x x x x x i i 0       ( ) ",
"            0 0 x x x x _ _ _ _ x x x x x x x x x x x x x x x x x x _ _ _ x x x x i 0 0         ` ' ",
"    $   $   0 0 x x x x _ _ _ _ x x x x x x x x x x x x x x x x x x _ _ _ x x x x i 0 0     $ $ $ ] ",
"$   $ *     0 0 x x x x x x x x x x x x x x Q x x x x Q x x x x x x x x x x x x x i 0 0     * * $ [ ",
"* * = 3 *   0 0 x x x x { ; * = } x x x x x t Q Q Q Q x |  .x x x x * = * $   x x i 0 0     * * $ * ",
"2 2 4 3     0 0 x x x x ..X.o.O.+.x x x x x   Q Q Q Q x @.#.x x x x $.%.&.*.  x x i 0 0     1 1 2 =.",
"      -.;.:.>.,.0 x x x x x x x x x x x x x x         -.x x x x x x x x x x x i i 0               ` ",
"  -.<.v 1.2.3.4.0 x x x x x x x x x x x x x x x x x x x x x x x x x x x x x x i i 0               . ",
"F b k 5.5       0 x x x x x x x x x x x x x x x x x x x x x x x x x x x x x x i i 0                 ",
"D 5             0 x x x x x x x x x x x x x x x x x x x x x x x x x x x x i i i i 0 : 6.5         * ",
"                0 x x x x x x x x x x x x x x x x x x x x x x x x x x x x i i i i 0 l  .l c $ 7.& ; ",
"                  0 0 x x x x x x x x x x x x x x x x x x x x x x x x x x i i 0 0 8.8.; 9.0.V -.8.q.",
"        $ $ *     0 0 x x x x x x x x x x x i 0 0 0 0 x x x x x x x x x x i i 0 0 w.e.q 0.r.= $ * = ",
"        $ * * = $ 0 0 x x x x x x x x x x x i 0 0 0 0 x x x x x x x x x x i i 0 0 8.t.y.A A u.*     ",
"        $ $ $ $ $ 0 0 x x x x x x x x x i i 0 * * $ $ 0 x x x x x x x x i i i 0 0 X 1 - i.p.0.a.= = ",
"        * 3 2 2 ; s.4 0 x x x x x x x i 0 0 1 1 1 3 1 2 0 0 x x x x x x i 0 0 ; 4 d.f.g.h.j.k.l.z.M ",
"                $ f 5 0 x x x x x x x i 0 0             0 0 x x x x x x i 0 0       / x.C c.v.| b.q ",
"                n.u   0 x x x x x i i i 0 0             0 0 x x x x i i i 0 0 $       m.@.@.M.N.B.V.",
"    C.          =       0 0 i i i i i 0                     0 i i i i i 0 . * $       a.^ Z.A.b.S.D.",
"    F.& .       $ $     0 0 i i i i i 0                     0 i i i i i 0                 s G.q H.J.",
"/ B K.w.L./     P.          0 0 0 0 0                         0 0 0 0 0                   -.w.c F.a.",
";.I.q ( U.n.l : u                                                                           $ = C.-.",
"c Y.v T.R.5 m.E.-.      $ * $ $     $ $                   * $ $ $ $   $ $                   * 9.W.Q.",
": W !.0.~.* l.^.b t `   $ $ * * $ $ $   *                 $ * * = * * * $ $                 * 3 /.(.",
"3 1  .y.m.C.c )._.`.V.F o = = 3 * * = = *                 * = = = = = = 3 *                 = = = 3 ",
"'.4 2 ; / U.L.+ ].q A.[.n {.1 1 = 3 1 1 *                 * 3 1 3 3 1 2 3 $                 3 3 1 3 ",
"M L.:     5 ( W V }.n.L.m.+ m.|.                                                                    ",
" X.XXXoX8     |.OX8.$   o [ +X@X                                                                    ",
"#X$X$X%X&X^ u   5 u &       $                                                                       "
};
