/* XPM */
static char *result[] = {
/* columns rows colors chars-per-pixel */
"50 50 156 2 ",
"   c #000000",
".  c gray3",
"X  c #110B0C",
"o  c #373737",
"O  c #3A3A3A",
"+  c #4A3F41",
"@  c #297140",
"#  c #484848",
"$  c gray26",
"%  c #554447",
"&  c #5A4549",
"*  c #515151",
"=  c #62494E",
"-  c #674B50",
";  c #615054",
":  c #487754",
">  c #567756",
",  c #7C7B77",
"<  c #7A7A7A",
"1  c #747E78",
"2  c #964B1F",
"3  c #A4593B",
"4  c #9F603B",
"5  c #B36739",
"6  c #AF5B40",
"7  c #B16A42",
"8  c #A86B48",
"9  c #AE7561",
"0  c #4A957B",
"q  c #64897B",
"w  c #7E807F",
"e  c #788B7D",
"r  c #7E907E",
"t  c #6CA761",
"y  c #7AA368",
"u  c #80817D",
"i  c #EA9777",
"p  c #A2D869",
"a  c #F4DD4A",
"s  c #7E7F80",
"d  c #5F44B9",
"f  c #B17D82",
"g  c #B77F88",
"h  c #D47E8B",
"j  c #ED7D8C",
"k  c #EF7F91",
"l  c #F07F90",
"z  c #826DC9",
"x  c #638F80",
"c  c #7F8181",
"v  c #639182",
"b  c #69C192",
"n  c #828384",
"m  c #8E8487",
"M  c #878989",
"N  c #8B8B8B",
"B  c #998488",
"V  c #97898D",
"C  c #949696",
"Z  c #9A9B9B",
"A  c #979899",
"S  c #A4848A",
"D  c #B6848E",
"F  c #B9838D",
"G  c #A88B91",
"H  c #BC8590",
"J  c #B58E93",
"K  c #A8979A",
"L  c #B0959A",
"P  c #96BE94",
"I  c #AFA992",
"U  c #BC98A0",
"Y  c #A6A6A6",
"T  c #ABACAC",
"R  c #AAA7A8",
"E  c #B9A5A9",
"W  c #AFB0AF",
"Q  c #B7B4AD",
"!  c #AEB0B0",
"~  c #B4B4B3",
"^  c #B7B8B7",
"/  c #BBBBB7",
"(  c #BBBBBA",
")  c #D5808D",
"_  c #C28691",
"`  c #C88592",
"'  c #D38594",
"]  c #DA8695",
"[  c #DA8A9A",
"{  c #C6949E",
"}  c #E28597",
"|  c #ED8394",
" . c #E38698",
".. c #EC8699",
"X. c #F08395",
"o. c #F4869B",
"O. c #F48A9E",
"+. c #D095A1",
"@. c #E19BA9",
"#. c #EA95A5",
"$. c #F49FAF",
"%. c #F297A7",
"&. c #F59FB0",
"*. c #C4BABC",
"=. c #EEA1AE",
"-. c #E0A3AC",
";. c #F3A2B2",
":. c #F3AAB7",
">. c #E9B6BD",
",. c #F1B0B9",
"<. c #9CCE9B",
"1. c #8DDD9F",
"2. c #8CD59D",
"3. c #BCF797",
"4. c #A7F4AA",
"5. c #F9C19D",
"6. c #C0C0BF",
"7. c #A596D8",
"8. c #ECB9C3",
"9. c #F0BDC7",
"0. c #C1C2C2",
"q. c #CACBCA",
"w. c #CCC5C7",
"e. c #D6CFCF",
"r. c #D3D3D3",
"t. c #D7D8D7",
"y. c #DCDCDC",
"u. c #ECC3CA",
"i. c #F5C6CE",
"p. c #E3DBCB",
"a. c #FBDCC8",
"s. c #EFCED5",
"d. c #ECD6D4",
"f. c #EEDCDE",
"g. c #E3DFD7",
"h. c #E6E1D3",
"j. c #E6E4DB",
"k. c #EAE5DB",
"l. c #ECE8DF",
"z. c #E8E2D5",
"x. c #E2FFD5",
"c. c #F0DFE0",
"v. c #E4E3E3",
"b. c #EDE7E3",
"n. c #EDEBE4",
"m. c #EEEDEB",
"M. c #F4E3E6",
"N. c #F0EBE7",
"B. c #F1EDEA",
"V. c #FAE9EC",
"C. c #EFF0ED",
"Z. c #F1F1EE",
"A. c #F0EFF0",
"S. c #F5F5F5",
"D. c #FEFEFE",
"F. c #FCF4F5",
/* pixels */
"S.S.S.S.S.S.S.S.S.D.S.S.S.S.S.S.S.S.S.S.S.D.S.S.S.S.S.S.S.D.S.S.S.S.D.S.S.S.S.S.S.S.S.m.S.S.S.S.S.S.",
"S.S.D.S.S.S.S.S.S.S.S.S.S.S.S.D.S.S.S.S.S.S.S.S.S.S.S.S.S.S.S.S.S.S.S.S.S.S.S.S.S.S.S.m.Z.S.S.S.S.S.",
"S.S.S.S.S.S.D.S.S.S.S.S.S.S.S.S.S.S.S.S.S.S.S.S.S.S.D.S.S.S.S.S.S.S.S.S.S.S.S.S.S.S.S.S.n.S.S.S.S.D.",
"S.S.S.S.S.S.S.S.S.S.S.S.S.S.S.S.S.S.D.S.S.S.S.! N c s s S.S.S.S.S.S.S.S.S.S.S.D.S.S.S.S.S.S.S.S.S.S.",
"S.S.S.S.S.D.S.S.S.S.S.S.A.A.m.m.A.A.A.A.A.0.T s x 1 f s n s S.A.A.m.A.A.S.S.S.S.S.S.S.S.S.S.S.Z.S.S.",
"A.A.S.S.S.S.S.S.S.S.S.S.v.s s x c c c c Y o o o o o o o o * o o o c c c T S.S.S.S.S.S.S.S.S.S.S.S.S.",
"j.m.m.A.S.S.S.S.S.S.S.S.m.s f s c c c c o o * * * < < * o * * * o D.s s T S.S.S.S.D.S.S.S.S.n.m.m.m.",
"A.n.S.S.D.S.S.S.S.S.0.~ ~ H H _ H _ O o o * < < < < < < * < < < < * * H U ~ ( v.S.S.S.S.S.S.Z.h.k.S.",
"S.m.j.S.S.S.S.S.S.S.Z c m o.o.o.+ o # < < < < < < < < < # < < < < < * D.` n N t.S.S.S.S.S.S.S.n.p.Z.",
"C.S.Z.C.S.S.S.S.S.S.Z c m ..o.% ; * Y < < < < < < < < < s < < < < < < * D.n N t.S.S.S.D.S.S.S.Z.l.N.",
"Z.n.Z.S.S.S.S.r.Z Z +.[ #.c.+ * s M < < < < < < < < < < < < < < < < < # o D. .L Z ~ S.S.S.S.S.S.n.n.",
"S.n.n.Z.A.S.S.q.n n ] o.%.# * < N M < < < < < < < < < < < < < < < < < < o o V.S n Z S.S.S.S.S.Z.n.Z.",
"S.Z.l.k.m.y.t.( B B @.&.:.o < < N N N s s < < < < < < < < < < < < < < < < o D.D B K y.v.n.S.n.m.Z.S.",
"S.S.C.p.h.u f J o.o.c.m.o * < < s M < Y Y s < < < < < < < < < < < < < < < < o D.O.] n < Q p.n.Z.S.S.",
"S.S.S.n.p., 1 9 k k c.A.o < < < < < < Y Y N < < < < < < < s < < < < < < < < o o i.h , < / S.Z.m.Z.S.",
"S.S.S.S.n.q r e j k o o * < < < < < < < M M s < < < < < < s v f N < < < < * o * o @.n c ( S.S.m.S.S.",
"D.S.S.S.S.q 1.P e | o o * < < < < * < < < < < < < < < < < Y Y < < N N N < o * < o s.< c ( S.S.S.Z.S.",
"S.S.S.S.S.v 0 1.<.0 o * < < < * < < < < < < * * * * < N Y Y N m Y N < * o * < * o V.n n 0.S.S.S.Z.S.",
"S.S.S.S.S.v 1.0 1.1.0 * < < < * < < < < * * * * * < N N N N N Y Y < * o 5 * < * o D.n n 0.S.S.S.Z.Z.",
"S.S.S.S.S.v 1.1.0 4.4.b < < * < < < s # * * * o < M N < < < N N < * o i 5 * * * o M.n n 0.S.S.D.Z.C.",
"S.S.S.S.S.v 2.1.1.b b b * < * < < < * * * * o < < < < < < < N < * o 5.5.5 * * o D.] n n 6.S.S.S.Z.Z.",
"S.S.S.S.S.N v 1.1.a 4.b b < * * * * * * * o o < < # < < < < < * o 5.5.5.5 * * o F.] n n 0.S.S.F.Z.k.",
"S.S.D.S.S.N   0 0 4.4.b 4.b o o o o o o o < < < * * < < < < * o i 5.5.i 5 * o D.o.] n n 0.S.S.S.S.k.",
"S.S.S.S.S.N   1.1.b b a 4.4.b i i.o o < < < o * * * < < < * o 2 2 5.5.5 * * o F.o.] n M 0.S.S.S.S.Z.",
"S.S.S.S.S.N c   1.4.4.b 4.4.b     * * * * o * * * * < < * o     2 5.5.5 * o D.' o.] n n 0.S.S.S.S.Z.",
"S.S.S.A.S.M M   1.1.a 4.b 4.x.b         o * * < * * < < o I   7.i 5.5.5 o D.n ' o.[ n n 0.S.A.S.S.S.",
"A.A.A.S.S.n c D   1.4.b b 4.a x.b   5.o o * < < * * < * o D.d   i 5.5.5 D.n n ' o.[ n n 0.S.C.S.Z.C.",
"S.S.S.S.B., < D   0 b 4.4.b x.x.x.b   o * * < < * * < o I D.z   i a.a.5 D., n ' o.[ N n 0.S.S.D.S.S.",
"S.S.A.n.n.w w 9 l   1.4.4.a b x.x.b o o * < < * * * * o 5.D.7.7.5.a.a.5.5 J S ) O.[ N n 0.S.S.S.S.S.",
"Z.n.m.S.S.M n J o.&   4.4.4.b 1.x.x.o * * < < * * * * o 5.5.a.a.a.a.a.5.5 X.X.X.O.[ M N 0.S.S.S.S.S.",
"n.S.S.S.S.M n D o.& *     b 4.x.1.x.  * * < * * o * * o 5.5.5.a.a.a.5.i 9 o.o.| | ] n n 6.S.S.S.S.S.",
"S.S.S.S.S.M n D - * * * o     4.x.1.  * < < * o   * * o 5.5.5.5.5.5.i   -.d.d.=.X.[ w < / S.S.S.Z.S.",
"S.S.S.S.S.n n D % * * o o o *   4.x.  * < * *     o * o 5.5.5.5.i 5   X.,.n.j.:.O.' n w ( Z.Z.S.C.C.",
"S.S.S.S.S.M n ; * +       o * *     @ * < * o   i   * o i i 5 5     #.%.>.n.b.=.o.) , w / Z.S.S.S.S.",
"S.S.S.S.S.n n       c.S.  * * * o   @ t t o         o o         n C v.N.m.n.b.=.| ] < < / m.Z.S.S.S.",
"S.S.D.S.S.n n D o.o.c.A.  * * O     t t @   5.5.2 @   i 6 o.O.B n C n.m.A.A.b.;.k ) n w / l.m.Z.S.Z.",
"S.S.S.S.S.( ^ E F g 8.9.. $     ~   t @   i i i 2 @   t > F H E ( 6.m.C.f.9.8.{ F J Q ^ q.z.N.N.B.C.",
"S.S.S.S.S.S.S.q.n s ] o.X . S.Z.Z.  t   @ @ i 2 @ t p p y : c r.A.m.C.A.i...o.S n Z S.Z.l.h.h.l.l.B.",
"S.D.S.S.S.S.S.q.N N ] ..#.N.b.N.N.  @   @ 3.t @ t t t p t : V e.b.B.B.M.u. .} G N Y S.Z.z.k.k.z.z.n.",
"S.S.S.S.S.S.S.A.y.y.K B S &.&.&.$.$.  2 2 @ D.D.@ t p p t @ > =.;.;.$.$.+.B B w.y.v.S.Z.B.n.N.l.p.p.",
"S.S.S.Z.S.S.S.S.S.S.A n m o.o.o.O.o.  i a.@ D.D.@ @ t t @ 3.: O.o.O.o.O.` n N t.S.S.S.S.S.S.n.N.n.j.",
"S.S.Z.Z.Z.S.S.S.S.S.^ R R ' ' ' ' ' 3 5.a.a.    3.p D.D.p 3.  ' ' ' ' ' { T ! v.S.S.S.S.S.S.Z.S.C.A.",
"n.k.B.Z.S.Z.Z.S.S.S.S.S.n.s n n c n c       5.  3.p D.D.p   n n c c c c ! S.S.S.S.D.S.S.S.S.S.Z.S.S.",
"S.k.l.n.Z.S.Z.Z.S.S.S.S.m.n n n n n n c 2 2               n c c M c n c ! S.S.S.S.S.S.S.S.S.S.Z.n.n.",
"S.Z.l.Z.Z.S.B.k.n.B.S.S.A.q.q.q.q.q.q.4 i 5.i 5.5.i   q.q.q.q.q.q.q.q.q.t.S.S.S.S.D.S.S.S.S.S.S.A.m.",
"Z.Z.Z.n.Z.S.Z.n.l.k.l.m.S.A.S.A.S.S.A.8 5.a.i i     S.S.S.S.S.S.S.A.A.S.A.S.S.S.S.S.S.S.S.S.S.S.S.A.",
"C.C.Z.Z.S.S.Z.Z.Z.N.n.n.n.n.A.A.S.A.S.. 5.a.    S.S.S.S.S.S.A.S.S.S.A.A.S.S.S.S.S.S.S.S.S.S.S.m.S.S.",
"Z.Z.S.S.S.S.Z.Z.Z.Z.C.C.S.S.A.S.S.S.S.S.    D.S.S.S.S.S.S.S.S.S.S.S.S.S.S.D.S.S.S.S.S.S.S.S.S.S.S.S.",
"y.v.v.v.C.S.S.S.Z.Z.S.S.S.Z.S.S.S.S.S.S.S.S.S.S.S.S.S.S.S.S.D.S.S.S.S.S.S.D.S.S.S.S.S.S.D.S.S.S.S.S.",
"v.v.v.v.n.m.S.S.S.S.Z.S.S.S.S.S.S.S.S.D.S.S.S.S.S.D.S.S.S.S.S.S.S.S.S.S.S.S.S.S.S.S.S.S.S.S.S.S.S.S."
};
