/* XPM */
static char *result[] = {
/* columns rows colors chars-per-pixel */
"50 50 153 2 ",
"   c #000000",
".  c #101010",
"X  c #373737",
"o  c #453C3D",
"O  c #297140",
"+  c #387348",
"@  c #434444",
"#  c #515151",
"$  c #497654",
"%  c #69795F",
"&  c #7B5F64",
"*  c #787769",
"=  c #7B7B76",
"-  c #7A7A7A",
";  c #964B1F",
":  c #945129",
">  c #B36739",
",  c #8F715A",
"<  c #96735B",
"1  c #A26948",
"2  c #AD7453",
"3  c #90656D",
"4  c #8F7969",
"5  c #8E6E74",
"6  c #8F7E7C",
"7  c #9C7877",
"8  c #AC777B",
"9  c #4A957B",
"0  c #7E807F",
"q  c #6CA761",
"w  c #74A565",
"e  c #80817D",
"r  c #E79677",
"t  c #EA9777",
"y  c #EA997A",
"u  c #A2D869",
"i  c #F4DD4A",
"p  c #7E7F80",
"a  c #5F44B9",
"s  c #A57F82",
"d  c #B17C82",
"f  c #B77F88",
"g  c #D47E8B",
"h  c #EA7B86",
"j  c #E77B89",
"k  c #F07E8F",
"l  c #EF7E90",
"z  c #F27F91",
"x  c #826DC9",
"c  c #7F8181",
"v  c #69C192",
"b  c #818384",
"n  c #8D8487",
"m  c #878989",
"M  c #8B8B8B",
"N  c #8D8789",
"B  c #928284",
"V  c #948488",
"C  c #998488",
"Z  c #9E898E",
"A  c #979899",
"S  c #9A9C9C",
"D  c #959595",
"F  c #A4858C",
"G  c #B5848D",
"H  c #B9838D",
"J  c #A88B91",
"K  c #B78790",
"L  c #BC8691",
"P  c #BA8B94",
"I  c #A8979A",
"U  c #B0959A",
"Y  c #AFA992",
"T  c #BC98A0",
"R  c #A6A6A6",
"E  c #A7A7A8",
"W  c #ACACAD",
"Q  c #ADA6A7",
"!  c #BCA2A7",
"~  c #AFB0AF",
"^  c #B7B4AD",
"/  c #AEB0B0",
"(  c #B4B4B4",
")  c #BBBBB7",
"_  c #BBBBBA",
"`  c #C38691",
"'  c #CA8693",
"]  c #C38A94",
"[  c #D28594",
"{  c #DC8697",
"}  c #D88999",
"|  c #C6949E",
" . c #E38597",
".. c #E38698",
"X. c #EC869A",
"o. c #EF8799",
"O. c #F28295",
"+. c #F4859B",
"@. c #F4899D",
"#. c #E3A38A",
"$. c #D095A1",
"%. c #E695A5",
"&. c #F49EAE",
"*. c #F496A8",
"=. c #F59FB0",
"-. c #C4BABC",
";. c #E8A2AD",
":. c #F3A2AF",
">. c #F3A1B1",
",. c #E4B3BC",
"<. c #8DDD9F",
"1. c #BCF797",
"2. c #A7F4AA",
"3. c #F9C19D",
"4. c #C0C0BF",
"5. c #A596D8",
"6. c #F4BDC8",
"7. c #C3C3C3",
"8. c #CACBCA",
"9. c #CCC5C7",
"0. c #D4D4D4",
"q. c #D7D8D7",
"w. c #DCDDDC",
"e. c #EEC7CE",
"r. c #F2C6CE",
"t. c #E3DBCB",
"y. c #FBDCC8",
"u. c #F5CCD4",
"i. c #E5DFD0",
"p. c #E0DFDE",
"a. c #EED8DA",
"s. c #F1D7DA",
"d. c #E6E1D3",
"f. c #E6E4DB",
"g. c #EAE5DB",
"h. c #ECE8DF",
"j. c #E8E2D5",
"k. c #E2FFD5",
"l. c #F0DFE0",
"z. c #FCDCE2",
"x. c #E3E3E3",
"c. c #EDEBE4",
"v. c #EEEDEC",
"b. c #F1E4E4",
"n. c #F0EBE7",
"m. c #F1EDEA",
"M. c #FDE9ED",
"N. c #F1F1EE",
"B. c #F0EFF0",
"V. c #FAEEF0",
"C. c #F5F5F5",
"Z. c #FAF5F6",
"A. c #FEFEFE",
/* pixels */
"C.C.C.A.C.C.C.C.C.C.C.C.C.A.C.C.C.C.C.C.C.Z.C.C.C.C.C.C.C.A.C.C.C.C.C.C.C.C.C.C.C.C.C.v.C.C.C.C.C.C.",
"C.C.C.Z.C.C.C.C.C.C.C.C.C.C.C.C.C.A.C.C.C.C.C.C.C.A.C.C.C.C.C.C.C.C.A.C.C.C.C.C.C.C.C.v.N.C.C.C.C.C.",
"C.C.C.C.C.C.C.C.C.C.C.C.C.C.C.C.C.C.C.C.C.C.C.C.C.C.C.C.C.C.C.C.C.C.C.C.C.C.C.A.C.C.C.C.m.C.C.C.C.C.",
"Z.C.C.C.C.A.C.C.C.A.C.C.C.C.C.C.C.C.C.C.C.C.( S A A E C.C.C.C.C.C.C.C.C.C.C.C.C.C.C.C.C.B.C.C.C.C.C.",
"C.B.C.C.C.C.C.C.C.C.C.C.C.v.B.v.C.B.B.B.7.( p p b - - R _ B.B.B.B.B.B.B.C.C.Z.C.C.Z.C.C.C.C.C.C.C.C.",
"C.B.C.C.C.C.C.C.C.C.Z.C.x.c c p c c c c E c c c - p p c w.c c c c p p c W C.C.C.C.C.C.C.C.C.C.C.C.C.",
"x.v.B.B.C.C.A.C.Z.C.C.C.v.p p p c c @ X # X X X X X X X X A.b c p p p p W C.C.C.C.C.C.A.C.C.c.v.B.N.",
"N.c.C.C.C.C.C.C.C.C.4.( ( L ` L 5 # # # # # # # # # # # # X X X ] ` ` L T ( _ x.C.Z.C.C.C.C.v.d.j.C.",
"C.v.f.N.C.C.C.C.C.C.A c n +.+.3 - - - - - # - - - - - - - - - # X X +.+.' b M q.C.C.C.C.C.C.C.n.t.N.",
"N.C.N.N.C.C.C.Z.C.A.S c n O.& - - = - - - - - - - - - - - - - R # # X A.` b m q.C.C.C.C.C.C.C.N.c.m.",
"N.c.C.C.C.C.Z.0.S S } ..%.X # - - - - - - - - - - - - - - - - - M - # X A. . .U S / A.C.C.C.C.C.h.c.",
"N.c.c.N.N.C.C.8.c b { @.X X - - - - - - - - - - - - - - - - - - M M - # X z.o.F m S Z.C.C.C.C.N.c.N.",
"C.N.h.f.m.w.a.-.C C %.>.X - - - - - - - - - - - - - - - - - - m M M - - X A.X.G C I w.p.c.N.c.N.N.C.",
"C.C.N.t.d.0 e ' @.+.b.X - - - - - - - - - - - - - - - - - R R - m - - - # X M.+.@.{ c 0 ^ d.c.N.C.C.",
"C.C.C.v.t.= = e l O.X X - - - - p p - - - - - - - - - - M E R - - - - - - X A.M.O.g ( 9 ) C.N.v.N.C.",
"C.C.C.C.c.0 = 8 h X # X # - - - - c c s - - - - - - - M M m - - - - - - - # X X A.e.9 <.9 C.C.v.C.C.",
"C.C.C.C.N.0 = 8 h X - # X - M m c p - R E - - - - - - - - - - - # - - - - # X X A.9 <.<.9 A.C.C.N.C.",
"C.C.C.A.C.m c d h X # - # X # - M E M m E E m - # # # # - - - - - - # - - - # X 9 <.<.9 9 A.C.C.N.C.",
"C.C.C.C.C.m c G h X # - # > X # - R R M m M M M - # # # # # - - - - # - - - # 9 <.<.9 <.9 A.C.C.N.N.",
"C.C.C.C.C.m m K O.o # # # > t X # - M M - - - m M - X # # # # - - - - # - - v 2.2.9 <.<.9 A.C.C.N.N.",
"C.C.C.C.C.M M K o.O.X # # > 3.3.X # - m - - - - - - - X # # # # - - - # - # v v v <.<.<.9 Z.C.C.N.m.",
"A.C.C.C.C.M m P @.O.X # # > 3.3.3.X # - - - - - # - - X X # # # # # # # - v v 2.i <.<.9 w.C.C.C.N.g.",
"C.C.C.C.C.M b K @.O.n X # > t 3.3.r X # - - - - # # - - - X X X X X X X v 2.v 2.2.9 9   w.C.C.C.C.h.",
"A.C.C.C.C.m m G O.+.V @ # # > 3.3.; ; X # - - - # # # X - - - X X y.t v 2.2.i v v <.<.  x.C.C.C.C.N.",
"C.C.C.C.C.M c K +.+.C c X # > 3.3.;     X # - - # # # # X # # # #     v 2.2.v 2.2.<.  7.7.C.B.C.C.N.",
"C.C.C.B.C.m c K +.+.C c c X > 3.3.t 5.  Y X - - # # - # # X         v k.2.v 2.i <.<.  8.4.C.C.C.C.C.",
"B.B.B.B.C.b c K +.+.B = - = > 3.3.t   a A.X # - # # - - # X X 3.  v k.i 2.v v 2.<.  v.c 4.C.C.C.v.v.",
"C.C.C.C.m.0 - G z z 6 = = * > y.y.t   x A.Y X - # # - - # # X   v k.k.k.v 2.2.v 9   v.m 7.C.C.C.C.C.",
"C.C.N.c.c.0 = e l O.G s 7 , 3.y.y.3.5.5.A.3.X # # # # - - # X X v k.k.v i 2.2.<.  A.m m 7.C.C.C.C.Z.",
"N.h.m.Z.C.m e ' +.O.z z j < 3.y.y.y.y.y.3.3.X # # # # - - # # X k.k.<.v 2.2.2.  X V.m m 7.C.C.C.C.C.",
"c.C.Z.C.C.b n H +.+.+.+...4 t 3.y.y.y.3.3.3.X # # X # # - # #   k.<.k.2.v     # X A.b b 4.C.C.C.C.C.",
"C.C.C.C.C.m b H @.@.u.l.a.{   t 3.3.3.3.3.3.X # #   X # - - #   <.k.2.    X # # # X p.- ) N.C.C.C.C.",
"C.C.C.C.C.b c G @.+.s.N.b.+.+.  > t 3.3.3.3.X # X     # # - #   k.2.  # X X X # # X w.c _ N.N.C.N.N.",
"C.C.C.C.C.m c K +.+.g.B.n.*.&.P     > > t t X #   t   X # - # O     # # X       X # X 8.) N.C.C.C.C.",
"C.C.C.A.C.c c G +.O.a.B.N.N.m.-.b b         X X         X q q O   X # # #   A.Z.      7.) v.N.C.C.C.",
"C.C.C.C.C.m c K +.+.b.B.B.B.C._ b b X.+.+.; t   O ; 3.3.  O q q     X # #   C.:.>.;.W b ) h.v.N.N.C.",
"C.C.C.C.C._ ( ! H f ,.6.r.N.N.0.( ( P L ' O q   O ; t t t   O q   A.    X   u.| G P ^ ^ 8.g.n.n.m.N.",
"A.C.C.C.C.C.C.8.b b { +.*.B.C.N.m.C.m b $ w u u q O ; t O O   q   Z.C.C.    o.F b S C.N.g.i.d.g.c.c.",
"C.C.C.C.C.C.A.8.m M { X.%.n.c.v.n.b.M n $ q u q q q O q 1.O   O   Z.n.v.e.X. .J M E C.C.g.g.g.g.d.h.",
"C.C.C.C.C.C.C.v.w.p.I C F =.&.&.>.&.{ % + q u u q O A.A.O ; ;   u.>.=.=.$.C Z 9.p.x.C.N.c.h.n.h.i.t.",
"C.C.N.N.Z.C.C.C.C.C.A b n +.+.+.@.X.@.* 1.O q q O O A.A.O y.y   6.@.@.+.] c m q.C.C.C.C.C.C.c.c.c.f.",
"C.N.C.N.N.C.C.C.C.C.) W Q [ [ [ } } [   1.u A.A.u 1.    y.y.3.; ,.[ [ [ | W / x.C.C.C.C.C.C.v.C.N.B.",
"m.h.m.N.N.N.m.C.N.C.C.C.v.c b b c c c c   u A.A.u 1.  3.      R b c b c / C.C.C.C.C.C.C.C.C.C.C.C.C.",
"C.g.h.m.N.C.N.N.C.C.C.C.x.c b b c m c c b               ; : c c b b b b / C.C.C.C.C.C.A.C.C.C.N.c.c.",
"N.N.c.N.N.C.c.g.c.m.C.C.C.7.8.8.8.8.8.8.8.8.8.  t 3.3.t 3.#.1 8.8.7.8.8.w.C.C.C.C.C.C.Z.C.C.C.C.B.v.",
"N.N.N.c.N.C.C.h.h.g.h.v.C.C.C.C.C.C.B.C.C.C.C.C.    t t y.3.2 B.C.C.C.C.C.C.C.C.C.C.C.C.C.C.C.C.B.C.",
"B.N.N.N.C.C.N.N.N.c.c.h.c.c.B.B.C.C.B.C.C.C.A.C.C.Z.    y.3.  B.B.C.B.B.C.C.C.C.A.C.C.C.C.C.B.B.C.C.",
"N.N.C.C.C.Z.N.N.N.C.B.B.C.N.B.C.C.C.C.C.C.C.C.C.C.C.C.C.. . C.C.C.C.C.C.C.C.C.C.C.C.C.C.C.C.C.C.C.C.",
"p.x.x.x.N.C.C.C.N.N.C.C.C.N.C.C.C.C.C.C.C.C.C.C.C.A.C.C.C.C.A.C.C.C.C.C.C.A.C.C.C.C.C.C.A.C.C.C.C.C.",
"x.x.x.x.c.v.N.C.C.C.N.C.C.C.C.C.C.C.C.C.A.C.C.C.C.C.C.C.C.C.C.C.C.C.C.C.C.C.C.C.C.C.C.C.C.C.C.C.C.C."
};
