/* XPM */
static char *result[] = {
/* columns rows colors chars-per-pixel */
"50 50 140 2 ",
"   c #000000",
".  c #373737",
"X  c #297140",
"o  c #4C4244",
"O  c #434343",
"+  c #56474A",
"@  c #515151",
"#  c #5E5F5F",
"$  c #755058",
"%  c #666768",
"&  c #6B6C6D",
"*  c #7B7B76",
"=  c #7A7A7A",
"-  c #964B1F",
";  c #96631F",
":  c #954D23",
">  c #915836",
",  c #915A3A",
"<  c #AA5C3E",
"1  c #B36739",
"2  c #A96C4D",
"3  c #A56F50",
"4  c #83656A",
"5  c #9D727B",
"6  c #5B8D7C",
"7  c #4A957B",
"8  c #5A927E",
"9  c #7E807F",
"0  c #718B7D",
"q  c #6CA761",
"w  c #80817D",
"e  c #EA9777",
"r  c #E79C7F",
"t  c #EA9979",
"y  c #9DCB6D",
"u  c #A2D869",
"i  c #AFCB71",
"p  c #F4DD4A",
"a  c #7E7F80",
"s  c #A57981",
"d  c #B17D82",
"f  c #B77F88",
"g  c #EE7D8C",
"h  c #EF7F91",
"j  c #7F8181",
"k  c #659281",
"l  c #69C192",
"z  c #818484",
"x  c #8E8487",
"c  c #878989",
"v  c #8B8B8B",
"b  c #998488",
"n  c #9F898E",
"m  c #938487",
"M  c #979899",
"N  c #9A9B9B",
"B  c #949594",
"V  c #A3888E",
"C  c #A4848B",
"Z  c #B5848E",
"A  c #B9838D",
"S  c #A88B91",
"D  c #B88D94",
"F  c #A69598",
"G  c #A9999C",
"H  c #B0959A",
"J  c #9AB390",
"K  c #9E9FA0",
"L  c #BC98A0",
"P  c #A6A6A6",
"I  c #ABA6A7",
"U  c #A7A7A8",
"Y  c #ACADAD",
"T  c #BCA2A7",
"R  c #AFB0AF",
"E  c #B7B4AD",
"W  c #AEB0B0",
"Q  c #B4B4B4",
"!  c #BBBBB7",
"~  c #BABBBA",
"^  c #D5808D",
"/  c #C38691",
"(  c #C88592",
")  c #D38594",
"_  c #DC8697",
"`  c #D98798",
"'  c #D68A99",
"]  c #C6949E",
"[  c #E69D81",
"{  c #EB8494",
"}  c #E38698",
"|  c #ED869A",
" . c #E48496",
".. c #F38296",
"X. c #F4859B",
"o. c #F4BF9C",
"O. c #D095A1",
"+. c #E29AA8",
"@. c #F799AB",
"#. c #CBA2AB",
"$. c #C4BABC",
"%. c #8DDD9F",
"&. c #99D09C",
"*. c #BDF697",
"=. c #A7F4AA",
"-. c #F9C19D",
";. c #C0C0BF",
":. c #F7B4C0",
">. c #C1C2C2",
",. c #CCC5C7",
"<. c #C7C8C8",
"1. c #CACBCA",
"2. c #D4D5D5",
"3. c #D7D8D7",
"4. c #DBDCDC",
"5. c #E3DBCB",
"6. c #FBDCC8",
"7. c #E5DFD0",
"8. c #E0DFDE",
"9. c #EFDDDF",
"0. c #FAD8DF",
"q. c #E6E1D3",
"w. c #E6E4DB",
"e. c #EAE5DB",
"r. c #ECE8DF",
"t. c #E8E2D5",
"y. c #E2FFD5",
"u. c #F3DEE1",
"i. c #DFE0E0",
"p. c #E4E4E3",
"a. c #EDEBE4",
"s. c #EDEDEC",
"d. c #F0EEE7",
"f. c #F0EFEA",
"g. c #F8ECEF",
"h. c #F2F1EE",
"j. c #F0EFF0",
"k. c #F5F5F5",
"l. c #FDF3F4",
"z. c #FFFFFF",
/* pixels */
"k.k.k.k.k.k.k.k.k.k.k.k.k.k.z.k.k.k.k.k.k.z.k.k.k.k.k.k.k.k.k.z.k.k.k.k.k.k.k.k.k.k.k.s.k.k.k.k.k.k.",
"k.k.z.k.k.k.k.k.k.k.z.k.k.k.k.k.k.k.k.k.k.k.k.k.k.k.k.k.k.k.k.k.k.k.z.k.k.k.k.k.k.k.k.s.h.k.k.k.k.k.",
"k.k.k.k.k.k.z.k.k.k.k.k.k.k.k.k.k.z.k.k.k.k.k.4.4.4.k.k.k.k.k.k.k.k.k.k.k.k.k.z.k.k.k.k.a.k.k.k.k.k.",
"k.k.k.k.k.k.k.k.k.k.k.z.k.k.k.k.k.k.k.k.k.k.= a j j a k.k.k.k.k.k.k.k.k.k.k.k.k.k.k.k.k.h.k.k.k.k.z.",
"k.k.k.k.k.k.z.k.k.k.k.k.k.j.s.s.j.j.j.j.j.k.a a = a a k.k.j.j.s.j.j.j.j.k.k.k.k.k.k.k.k.k.k.k.k.k.k.",
"j.j.k.k.k.k.k.k.k.k.k.k.p.j j j j j a a U @ @ @ . . . . M j j j a z a j Y k.k.k.k.k.k.k.k.k.k.k.k.k.",
"w.s.s.j.k.k.k.k.k.k.k.k.s.a j j j a & % @ @ @ @ . @ @ @ @ O # a a a a a Y k.k.k.k.k.k.z.k.k.a.s.s.j.",
"j.a.k.k.z.k.k.k.k.k.>.Q Q A / / s = a = = = @ @ @ @ @ = = = = @ 4 / / A L Q ~ p.k.k.k.k.k.k.d.q.t.k.",
"k.s.w.k.k.k.k.k.k.k.N z x X.X.P P K = = = = = = @ = = = = = = = = @ X.X.( s v 4.k.k.k.k.k.k.k.a.5.h.",
"s.k.h.s.k.k.k.k.k.k.M z x X.U P P = * = = = = @ @ @ = = = = = @ = = @ $ Z j c 4.k.k.k.z.k.k.k.h.a.s.",
"h.a.k.k.k.k.k.2.N N ' } 5 = = = = = = = = = = = = = = = = = = = @ @ = @ o } _ H N Q k.k.k.k.k.k.a.a.",
"k.a.a.d.k.k.k.<.z z _ X.4 = @ v v v = = = = = = = = = = = = = v = @ @ @ . @.| V z N k.k.k.k.k.k.a.h.",
"k.h.r.w.s.4.4.$.b b +.+ @ @ = v P v = P P = = = = = = = = = v v = @ @ @ @ . u.Z b G 4.i.s.f.a.d.h.k.",
"k.k.h.5.q.w z Z X.X.9.. @ @ = v v = v P P v = = = = = = v = v v = = @ @ @ . l.X.X.` z = E 7.a.h.k.k.",
"k.k.k.a.5.* * d h ..9.. @ = = v = = v P v v v v c v v v v = v = = = @ @ @ . z.X.h ) * * ~ k.h.d.h.k.",
"k.k.k.k.a.* * 0 g g . @ @ * = = = = v v v = v P P I c v = = = = = = = @ @ @ . l.:.7 k.z ~ k.k.s.h.k.",
"z.k.k.k.s.s 6 &.7 { . @ @ = = = = = x = = = = z c c = = = = = = = = = @ @ @ . z.7 %.7 2.~ k.k.k.h.k.",
"k.k.k.k.k.c 6 l &.7 . @ @ = = = = = = = = = = = v = = = = = = = = = = @ @ @ . 7 %.%.7 p.>.k.k.k.h.k.",
"k.k.k.k.k.j k 7 %.%.7 @ @ = = = = = = = = = = = = = = = = = = = = = = @ @ @ 7 %.%.7 7 p.>.k.k.k.h.h.",
"k.k.k.k.z.j k %.7 %.%.7 @ = = = = = = = = = = = = = = = = = = = = = = @ @ 7 %.%.7 %.7 2.>.k.k.k.k.h.",
"k.k.k.k.k.v k %.%.7 =.=.l = = = = = = = = = = = = = = = = = = = = = = @ l =.=.7 p %.7 3.>.k.k.k.s.d.",
"k.k.k.k.k.v 7 p %.%.l l l @ = = = = = = = = = = = = = = = = = = = = @ @ l l l %.%.%.7 <.>.k.k.k.h.e.",
"k.k.z.k.k.v c 0 %.%.=.p l l = = @ = = = = = = = = = = = = = = = @ = @ l l =.=.%.%.7 z.z >.k.k.k.k.r.",
"k.k.k.k.k.c c   7 7 =.=.l =.l = @ = = = = = = = = = = = = = = = @ = l =.l =.p 7 7   z.z <.k.k.k.k.h.",
"k.k.k.k.k.v j   %.%.l l l =.=.l @ = = = = = = = = = = = @ = = = @ l =.=.l l l %.%.  z.j >.k.k.k.k.h.",
"k.k.k.j.k.j z H   %.=.=.l =.=.l @ @ = = @ = = = o = = = @ @ = @ @ l =.=.l p =.%.  z.j j >.k.j.k.k.k.",
"j.j.j.k.k.c z Z   %.%.p =.l =.y.l @ @ = @ = = @ @ @ = = @ @ = @ l y.=.l =.=.%.%.  l.c j >.k.k.k.h.j.",
"k.k.k.k.a.* = Z o   %.=.l l =.y.y.l @ @ @ @ = @ @ @ = @ @ @ @ l y.p =.l l =.%.  . u.c c >.k.k.k.k.k.",
"k.k.h.a.a.9 9 5 o   7 l =.=.l y.y.y.l @ @ @ @ @ @ @ @ @ @ @ l y.y.y.l =.=.l 7   . z.c z >.k.k.k.k.k.",
"d.a.d.k.k.c w + @ @   %.=.p =.l p y.l @ @ @ @ @ @ @ @ @ @ @ l y.y.l =.=.=.%.  @ @ . K v >.k.k.k.k.k.",
"d.k.k.k.k.z z o @ @ @   =.=.=.l %.y.y.l @ @ @ @ @ @ @ @ @ l y.y.%.p =.=.=.  @ @ @ . v j ;.k.k.k.k.k.",
"k.k.k.k.k.c z o @ @ @       l =.y.%.y.y.l @ @ @ @ @ @ @ l y.y.%.y.=.l       @ @ @ . j = ! k.k.h.k.j.",
"k.k.k.k.k.c j o @ @   . @ @     =.y.%.%.y.l @ @ ; @ @ l y.%.%.y.=.    @ @ .   @ @ . w z ~ d.k.k.h.h.",
"k.k.k.z.k.c j o @   q . @ @ @ @   =.y.y.%.l @ @   @ @ l %.y.y.=.  @ @ @ @ . q   @ . 9 = ! h.k.k.k.k.",
"k.k.k.k.k.j j       q . @ @ @         y.y.y.7   1   7 y.y.y.        @ @ @ . q       j = ! d.s.k.k.k.",
"k.k.k.k.k.c j Z X.  q . @ @   *.X . @     y.7 e e e 7 y.    @   X *.  @ @ . q   h ^ j 9 ! r.s.h.j.k.",
"k.z.k.k.k.~ ~ T A A   . @   : X z.. @ @     -.6.6.6.-.  . @ @   z.X -   @ .   O.A D Q Q 1.e.a.a.s.h.",
"k.k.k.k.k.k.k.1.w z   X.  t 6.X z.. @ @   X X X X X X X . @ @   z.X 6.e   X.  C z N k.h.r.q.t.e.r.d.",
"k.k.k.k.k.k.k.1.v v ' | < -.6.6.  X . @   u u u u u u u . @   X   6.6.-.2 {  .S v P k.h.e.t.e.e.t.r.",
"k.k.k.k.k.k.k.j.4.8.F b V       -.X *.    q q q q q q q     *.X -.      O.b n ,.4.p.k.k.d.r.d.r.7.5.",
"k.k.h.k.k.k.k.k.k.k.M j x X.X.      *.u g.u <.2.u 1.s.u V i *.      X.X.( j v 3.k.k.k.k.k.h.d.d.r.e.",
"k.h.k.h.h.k.k.k.h.k.! Y I ) ) ) ) )     #.u 4.k.u z.z.y m     ) ) ) ) ) ] Y W p.k.k.k.k.k.k.d.k.j.j.",
"d.e.a.h.k.h.s.k.k.k.k.k.s.j z z j j > :                   : , c j z j z W k.k.k.k.k.k.k.k.k.k.k.k.k.",
"k.e.a.a.h.k.h.h.k.k.k.k.p.j z z z z > 6.6.t -., z , -.t 6.6., z j z z j W k.k.k.k.k.k.z.k.k.k.f.a.a.",
"h.h.a.d.h.k.d.t.a.d.k.k.k.1.1.1.<.<.3 6.6.[   1.1.1.  [ 6.6.3 1.1.1.1.1.4.k.k.k.k.k.k.k.k.k.k.k.j.s.",
"k.h.h.a.h.k.k.a.r.e.r.s.k.j.k.j.k.k.  e t   k.k.k.k.k.  t r   k.k.k.j.k.j.k.k.k.k.k.k.k.k.k.j.k.j.k.",
"j.j.h.j.k.k.h.h.h.a.a.a.d.a.j.j.k.k.k.    k.k.k.k.k.k.k.    j.k.k.k.j.j.k.k.k.z.k.k.k.z.k.k.k.j.k.j.",
"h.h.k.k.k.k.h.h.h.k.h.h.j.h.k.k.k.k.k.k.z.k.k.k.k.z.k.k.k.k.k.k.k.k.k.k.k.k.k.k.k.k.k.k.k.k.k.k.k.k.",
"i.p.p.p.h.k.k.k.h.h.k.k.k.k.k.k.k.k.k.k.k.k.k.k.k.k.k.k.k.k.k.k.k.k.k.k.k.k.k.k.k.k.z.k.k.k.k.k.k.z.",
"i.p.p.p.a.d.j.k.k.k.h.k.k.k.k.k.k.k.k.k.k.k.k.z.k.k.k.k.k.k.k.z.k.k.k.k.k.k.k.k.k.k.k.k.k.k.k.k.k.k."
};
