/* XPM */
static char *result[] = {
/* columns rows colors chars-per-pixel */
"50 50 179 2 ",
"   c #0B0E0F",
".  c #0B110F",
"X  c #0C0F11",
"o  c #0C1011",
"O  c #121415",
"+  c #191014",
"@  c #141718",
"#  c #161A1A",
"$  c #191C1D",
"%  c #241216",
"&  c #271218",
"*  c #2C1218",
"=  c #28181B",
"-  c #33131B",
";  c #3C131B",
":  c #35181F",
">  c #1C1F20",
",  c #2B1E22",
"<  c #3C1C25",
"1  c #1E2122",
"2  c #222626",
"3  c #26292A",
"4  c #2E3232",
"5  c #323536",
"6  c #3A3D3D",
"7  c #37393A",
"8  c #42131D",
"9  c #4A121D",
"0  c #4E1420",
"q  c #531321",
"w  c #5D1523",
"e  c #551C28",
"r  c #651525",
"t  c #691525",
"y  c #661B2A",
"u  c #771227",
"i  c #761328",
"p  c #7C192D",
"a  c #781227",
"s  c #7C1C30",
"d  c #482028",
"f  c #5D222E",
"g  c #4C3B3E",
"h  c #56353C",
"j  c #752838",
"k  c #3D413F",
"l  c #5C3D43",
"z  c #6B3440",
"x  c #3E4040",
"c  c #464949",
"v  c #525454",
"b  c #5B5D5D",
"n  c #775A5F",
"m  c #655659",
"M  c #5D605F",
"N  c #5E6160",
"B  c #676969",
"V  c #656767",
"C  c #776669",
"Z  c #727574",
"A  c #7A7C7B",
"S  c #777776",
"D  c #83142B",
"F  c #8D162D",
"G  c #99152F",
"H  c #8C1B31",
"J  c #9A1631",
"K  c #AE1432",
"L  c #AE1C39",
"P  c #A91734",
"I  c #B01433",
"U  c #BE1637",
"Y  c #B31F3B",
"T  c #BD1B3B",
"R  c #B71738",
"E  c #842A3B",
"W  c #B2203D",
"Q  c #C51437",
"!  c #C71639",
"~  c #C8183B",
"^  c #D3163B",
"/  c #DD163D",
"(  c #D51A3E",
")  c #E5163E",
"_  c #EA163F",
"`  c #F3133F",
"'  c #C0213F",
"]  c #893949",
"[  c #A7364C",
"{  c #E61640",
"}  c #ED1641",
"|  c #ED1A43",
" . c #E71A42",
".. c #F41541",
"X. c #F21B45",
"o. c #F41F48",
"O. c #F81542",
"+. c #C12140",
"@. c #D52E4E",
"#. c #CF3F5B",
"$. c #DF3859",
"%. c #F4224B",
"&. c #F5214A",
"*. c #F42952",
"=. c #E03153",
"-. c #F2395C",
";. c #F33459",
":. c #EA2149",
">. c #88545F",
",. c #D05A70",
"<. c #D84662",
"1. c #EB4968",
"2. c #F14465",
"3. c #F24A6A",
"4. c #EE5874",
"5. c #F25372",
"6. c #DB677D",
"7. c #EE647D",
"8. c #F2617C",
"9. c #85837E",
"0. c #927E82",
"q. c #DB788A",
"w. c #ED7189",
"e. c #F17187",
"r. c #7F8181",
"t. c #848684",
"y. c #878885",
"u. c #8B8C8B",
"i. c #888987",
"p. c #8E908E",
"a. c #8F9090",
"s. c #919292",
"d. c #969896",
"f. c #9C9D9D",
"g. c #A39698",
"h. c #9FA1A1",
"j. c #A0A2A2",
"k. c #ACAEAB",
"l. c #B9B9B9",
"z. c #B5B5B2",
"x. c #B7A8A9",
"c. c #EB8497",
"v. c #F08A9D",
"b. c #E999A6",
"n. c #F098A7",
"m. c #F0ACB6",
"M. c #EBAFBA",
"N. c #E7BEC3",
"B. c #ECBCC2",
"V. c #C5C6C4",
"C. c #CECFCC",
"Z. c #DCDDDB",
"A. c #D5D5D3",
"S. c #EEC2C7",
"D. c #ECC6CB",
"F. c #EDCACD",
"G. c #E3DBCB",
"H. c #EACED2",
"J. c #EDD3D5",
"K. c #E0DFDF",
"L. c #ECDBDB",
"P. c #E9DBD4",
"I. c #DFE0DB",
"U. c #E6E1D3",
"Y. c #E5E4DC",
"T. c #EAE5DB",
"R. c #ECE8DF",
"E. c #E8E2D5",
"W. c #E4E4E4",
"Q. c #EAE4E2",
"!. c #E7E8E3",
"~. c #ECEAE4",
"^. c #ECEDEA",
"/. c #F0EFEA",
"(. c #F0EEE7",
"). c #EFF0EA",
"_. c #F2F1EE",
"`. c #F0EFF0",
"'. c #F5F5F5",
/* pixels */
"'.'.'.'.'.'.'.'.'.'.'.'.'.'.'.'.'.'.'.'.'.'.'.'.'.'.'.'.'.'.'.'.'.'.'.'.'.'.'.'.'.'.'._.'.'.'.'.'.'.",
"'.'.'.'.'.'.'.'.'.'.'.'.'.'.'.'.'.'.'.'.'.'.'.'.'.'.'.'.'.'.'.'.'.'.'.'.'.'.'.'.'.'.'._._.'.'.'.'.'.",
"'.'.'.'.'.'.'.'.'.'.'.'.'.'.'.'.'.'.'.'.'.'.'.'.'.'.'.'.'.'.'.'.'.'.'.'.'.'.'.'.'.'.'.'.^.'.'.'.'.'.",
"'.'.'.'.'.'.'.'.'.'.'.'.'.'.'.'.'.'.'.'.'.'.'.'.'.'.'.'.'.'.'.'.'.'.'.'.'.'.'.'.'.'.'.'._.'.'.'.'.'.",
"'.'.'.'.'.'.'.'.'.'.'.'.'.W.W.Q.'.^.W.^.^.'.'.'.'.'.'.'.'.^.!.W.W.^.W.W.`.'.'.'.'.'.'.'.'.'.'.'.'.'.",
"_.'.'.'.'.'.'.'.'.'.'.'.Z.X X X X X X o b ^.'.'.'.'.'.'.C.o X X X X X X B '.'.'.'.'.'.'.'.'.'.'.'.'.",
"Y.^.'.'.'.'.'.'.'.'.'.'.Z.X X X o o o @ b ^.'.'.'.'.'.'.V.o X o X o O O B '.'.'.'.'.'.'.'.'._.(._._.",
"'.~.'.'.'.'.'.'.'.'.u.Z C F F F F F H H ] Z A V.'.`.t.Z C F F F F F F H z Z r.A.'.'.'.'.'.'._.E.E.'.",
"'.^.E.'.'.'.'.'.'.'.x o & ........%.:.%.W = @ f.'.W.4 X 8 ......` O.O...G o 1 l.'.'.'.'.'.'.'.~.G._.",
"^.'.'.).'.'.'.'.'.'.6 o % ...._ ..X._ o.L + o h.'.W.4 X 8 ..` ` ` ` O.` G . 1 l.'.'.'.'.'.'.'.'.~./.",
"/.~._.'.'.'.'.k.x x W ^ @.H.J.J.H.J.*.o. .^ ^ j 6 l R ^ <.J.H.J.J.B.%...) ~ ~ j c B '.'.'.'.'.'.~.~.",
"'.^.~./.'.'.'.f.X X ! ..-.^.^./.!.!.*.X...| ..t X & ~ ..3.^.^.^.).J.%.....O._ q O c '.'.'.'.'._.~._.",
"'._.T.T.^.V.V.0.; ; #.3.7.N.B.S.F.F.%.` ......D ; 0 ( ..2.B.S.S.S.m.%.......) i ; l V.V.K.'.~.^._.'.",
"'.'./.G.E.O o i ....F.!.J.o.o.%...X.} ..........O.O.....O...O.O.` ..........O...` U o o 9.G.R._.'.'.",
"'.'.'.^.G.O o a ....D.!.J.` } %.} } ......................................O.......U o o y.'._./._.'.",
"'.'.'.'.~.O o a ....7.w.q.r y y t t t t t y t t t t t r t t t t r t t t G ` ......Q o X y.'.'.^._.'.",
"'.'.'.'.'.O . a _ %.%.&.( o o o o o o o o o o o o o o o o o o o . . o o r O.` O...U o o y.'.'.'.'.'.",
"'.'.'.'.'.# o a X.o.:.) ~ o o O # # # # # # # # # # # $ # # # # $ @ o o w ) _ ` O.U o X a.'.'.'./.'.",
"'.'.'.'.'.# o p | %.f < : o o V V.V.V.V.V.V.V.V.V.V.V.V.V.V.V.V.V.k.# o + - 8 R ` U o o u.'.'.'._._.",
"'.'.'.'.'.1 # j %.&.< @ o o . S ^.^.^.^.^.^.).).).^.^.!.^.^.^.).^.C.$ o o o + K O.U O   s.'.'.'.'./.",
"'.'.'.'.'.1 $ i &.X.: o @ M M S d.d.d.d.d.d.d.d.d.d.d.d.d.d.d.d.d.a.V M c   X K O.U O . u.'.'.'./.^.",
"'.'.'.'.'.1 $ s &...- o 3 ^.!.t.O o O o o o O o o O O o o O o O o 4 A.!.a.  + K ..U o o u.'.'.'._.T.",
"'.'.'.'.'.1 # p &...- o 3 _.^.t.o o o . o o o o o o o o o . . . o 3 Y.(.d.  + K ..U o o s.'.'.'.'.T.",
"'.'.'.'.'.$ $ u _ ..- o O v v 5 . o o o o o o o o o o . o o o . o # c v 7   + K ..U o O s.'.'.'.'._.",
"'.'.'.'.'.1 @ i X...- . o o o o o o o o o o o o o o o o   o   o X o o o o . + K O.U O o a.'.`.'.'.'.",
"'.'.`.'.'.# o i ` O.- o o o o o X X o X X X o X o o . o o o o o o o o X o X + K ..U   X u.'.'.'.'.'.",
"'.'.'.'.'.@ o i ..O.- o o o o o o o o o o o X o o . o o o o   o o X o o o o O K ..U O O u.'.'.'.^.^.",
"'.'.'.'.^.# X a ....- o o o . o o o o o o o X X o o o o o o o o o o X o X o + K ` [ $ # u.'.'.'.'.'.",
"'.'._.(.~.@ o a ....i w q . o o o o q w w w w & X + q w e w w % o o o o * w t Q ` +.$ O a.'.'.'.'.'.",
"_.~.(.'.'.@ . a ........^ o X . o o { O.....O.t X % ^ ......O.9 o o   o y X.| X.O.+.$ $ s.'.'.'.'.'.",
"(.'.'.'.'.O O u ` O.X...( O O . o o { ......O.t X % ^ ........9 . o o o y *.%.%.&.W O + i.'.'.'.'.'.",
"'.'.'.'.'.O   u O.O.m.F.M.Q ~ t o o { ..O.....r o % ^ ........9 o % U Q ,.D.D.3.X.T o o t.'.'.'.'.'.",
"'.'.'.'.'.@ X i ..` F.^.P.....D o o { ......O.t o % ^ ` ......9   * ) X.e.~.K.8.&.T o o i./.'.'._./.",
"'.'.'.'.'.@ X i ..` F.^.L.;.-.E o o { ..O.....D - 9 ^ ........9 O = =.2.c.~.Q.4.O.U o . y._._.'.'.'.",
"'.'.'.'.'.@ X i ....F.^.^.Q.Q.t.o X { ....O...} } _ O.........9 # 5 A.~.Q.W.Y.4...U o X y./._.'.'.'.",
"'.'.'.'.'.O   a ....F.^.^.(.~.t.X o { O.........O.........O...9 O 5 Z.^.^.^.Q.4...U X   t.!.~.'._.'.",
"'.'.'.'.'.i.t.>.D D q.v.n.^.^.z.Z Z p D P } O...........( D D n A t.Y.~.D.c.c.[ H z >.A z.T.~.(.(._.",
"'.'.'.'.'.'.'.f.o X ! ..;.^.^.^.^.~.# o 8 ) ..O.` O.....R @ o k.^.!.!.^.n.} { q o c './.R.G.E.T.R.(.",
"'.'.'.'.'.'.'.j.3 2 T ) =.L.L.L.L.L.= + q ^ / / / / / / L 2 , x.P.L.L.L.b./ ^ f 3 b '.'.T.E.T.T.E.R.",
"'.'.'.'.'.'.'.^.V.V.h ; e 3.3.3.3.3.! T J ; ; ; ; ; ; ; q +.! 1.3.5.3.1.[ ; d g.V.C.'._.(.~.~.R.U.G.",
"'.'._.'.'.'.'.'.'.'.6 X & O.......O...O.I + o o X o o o 8 X.%.X.| ......J X 2 l.'.'.'.'.'.'._.^.R.T.",
"'.'._./._.'.'.'.'.'.A b m K I K I P P I p + o o o o o o - P W L K I I I ] N B C.'.'.'.'.'.'._.'._._.",
"~.T.(._.'._./.'.'.'.'.'.Z.X X X o o o o o o X o o o o o o X o O X X X X B '.'.'.'.'.'.'.'.'.'._.'.'.",
"'.T.R.~.'.'._./.'.'.'.'.Z.X o o o o o o o o o o o o o o o o o X o o o o B '.'.'.'.'.'.'.'.'.'._.!.^.",
"'./.~.^._.'.(.E.(.(.'.'.^.f.h.h.h.h.h.h.h.k.j.j.h.j.j.j.k.j.h.h.h.h.h.h.V.'.'.'.'.'.'.'.'.'.'.'.'.~.",
"_.'./.~._.'.'.~.R.T.R./.'.'.'.`.'.'.'.`.'.'.'.'.'.'.'.'.'.'.'.'.'.'.'.'.'.'.'.'.'.'.'.'.'.'.'.'.'.'.",
"`.^.`.'.'.'./._./.(.~.~.^.^.`.`.'.`.`.'.'.'.'.'.'.'.'.'.'.'.'.'.'.`.`.`.'.'.'.'.'.'.'.'.'.'._.'.'.'.",
"`./.'.'.'.'._._._.'._._._.^.'.'.'.'.'.'.'.'.'.'.'.'.'.'.'.'.'.'.'.'.'.'.'.'.'.'.'.'.'.'.'.'.'.'.'.'.",
"K.W.Y.W.^.'.'.'./._.'.'.'./.'.'.'.'.'.'.'.'.'.'.'.'.'.'.'.'.'.'.'.'.'.'.'.'.'.'.'.'.'.'.'.'.'.'.'.'.",
"W.W.W.W.!./.'.'.'.'.'.'.'.'.'.'.'.'.'.'.'.'.'.'.'.'.'.'.'.'.'.'.'.'.'.'.'.'.'.'.'.'.'.'.'.'.'.'.'.'."
};
