/* XPM */
static char *result[] = {
/* columns rows colors chars-per-pixel */
"50 50 134 2 ",
"   c #000000",
".  c #373737",
"X  c #3C3A3A",
"o  c #433F40",
"O  c #4A3F41",
"+  c #297140",
"@  c #444545",
"#  c #4E4E4E",
"$  c #5C4C4F",
"%  c #515151",
"&  c #7D545C",
"*  c #40734A",
"=  c #7D5E64",
"-  c #626263",
";  c #7C7B76",
":  c #7A7A7A",
">  c #964B1F",
",  c #B36739",
"<  c #9B624A",
"1  c #B56650",
"2  c #B17D5D",
"3  c #9D616D",
"4  c #9C717A",
"5  c #B66B7A",
"6  c #5B8C7A",
"7  c #4A957B",
"8  c #51927C",
"9  c #6F8179",
"0  c #7F807F",
"q  c #6CA761",
"w  c #79AE6F",
"e  c #80817D",
"r  c #EA9777",
"t  c #A2D869",
"y  c #F4DD4A",
"u  c #7E7F80",
"i  c #5F44B9",
"p  c #B17D82",
"a  c #B77F88",
"s  c #EF7F92",
"d  c #E27D91",
"f  c #826DC9",
"g  c #7F8181",
"h  c #818484",
"j  c #8E8487",
"k  c #878989",
"l  c #8B8B8B",
"z  c #998488",
"x  c #9E898E",
"c  c #8D8F90",
"v  c #979899",
"b  c #9B9B9B",
"n  c #959595",
"m  c #A38689",
"M  c #B5848E",
"N  c #B9838D",
"B  c #A88B91",
"V  c #B88D94",
"C  c #A69598",
"Z  c #A9999C",
"A  c #B0959A",
"S  c #AFA992",
"D  c #A4BE98",
"F  c #BC98A0",
"G  c #A6A6A6",
"H  c #ADA6A7",
"J  c #ACADAD",
"K  c #BCA2A7",
"L  c #AFB0AF",
"P  c #B7B4AD",
"I  c #AEB0B0",
"U  c #B4B4B4",
"Y  c #BBBBB7",
"T  c #BBBBBA",
"R  c #D5808D",
"E  c #C38591",
"W  c #C88592",
"Q  c #D28594",
"!  c #DB8595",
"~  c #D98798",
"^  c #D68A99",
"/  c #C6949E",
"(  c #E28597",
")  c #E88497",
"_  c #E38698",
"`  c #ED8599",
"'  c #F18195",
"]  c #F4859B",
"[  c #F9BD9D",
"{  c #DD92A1",
"}  c #F68CA0",
"|  c #E29CAA",
" . c #E592A2",
".. c #F69FB0",
"X. c #F495A7",
"o. c #C4BABC",
"O. c #EFA2AE",
"+. c #E5B3BC",
"@. c #8DDD9F",
"#. c #A4C69A",
"$. c #BCF797",
"%. c #F9C19D",
"&. c #C0C0BF",
"*. c #A596D8",
"=. c #ECB9C3",
"-. c #C1C2C2",
";. c #CCC5C7",
":. c #CACBCA",
">. c #D5D5D5",
",. c #D7D8D7",
"<. c #DCDCDC",
"1. c #F2C6CE",
"2. c #F0C8CE",
"3. c #E3DBCB",
"4. c #FBDCC8",
"5. c #E5DFD0",
"6. c #E0DFDE",
"7. c #EFDDDF",
"8. c #E6E1D3",
"9. c #E6E4DB",
"0. c #EAE5DB",
"q. c #ECE8DF",
"w. c #E8E2D5",
"e. c #F3DEE1",
"r. c #E3E3E3",
"t. c #EDEBE4",
"y. c #EEEDEC",
"u. c #F0EEE7",
"i. c #F0EFEA",
"p. c #F2F1EE",
"a. c #F0EFF0",
"s. c #F5F5F5",
"d. c #FFFFFF",
"f. c #FBF2F3",
/* pixels */
"s.s.s.s.s.s.s.s.s.s.s.s.s.s.d.s.s.s.s.s.s.s.s.s.s.s.s.s.s.s.s.s.s.s.s.s.d.s.s.d.s.s.s.y.s.s.s.s.s.s.",
"s.s.d.s.s.s.s.s.s.s.d.s.s.s.s.s.s.s.s.s.s.s.s.s.d.s.s.s.s.s.d.s.s.s.s.s.s.s.s.s.s.s.s.y.p.s.s.s.s.s.",
"s.s.s.s.s.s.s.d.s.s.s.s.s.s.s.s.s.s.s.s.s.I v v b T s.s.s.s.s.s.s.s.s.s.s.s.s.s.s.s.s.p.t.s.s.s.s.s.",
"s.s.s.s.s.s.s.s.s.s.s.s.s.s.s.s.s.s.s.-.T : g g u : -.>.s.s.s.s.s.s.s.s.s.s.s.s.s.s.s.s.s.a.s.s.s.s.",
"s.s.s.s.s.s.s.d.s.s.s.s.s.y.a.r.a.a.a.a.n g g g u u b s.s.a.a.y.a.a.a.a.s.s.s.s.s.s.s.s.s.s.s.s.s.s.",
"y.a.s.s.s.s.s.s.s.s.s.s.r.g g u g g . . . . . % . . X . X g g g g g g g I s.s.s.s.s.s.s.d.s.s.s.s.s.",
"9.y.a.s.s.s.s.s.s.s.s.s.y.g p u @ . . % # # % % . % # % % . @ - u g u u J s.s.s.s.s.s.s.s.s.t.y.a.a.",
"a.t.s.s.s.s.s.s.s.s.-.U U B a # % g : : : : : % % % : : : : % % $ E E N F U T r.d.s.s.s.s.s.t.8.0.s.",
"s.i.9.s.s.s.s.s.s.d.v h g ` = : : k k : : : : : % : : : : : : : : O d ] E h l ,.s.s.s.s.s.s.s.t.3.p.",
"y.s.s.i.s.s.s.s.s.s.v g p 3 . : : : : : : : : : : : : : : : : : : : . 5 E h k ,.s.s.s.s.s.s.s.p.t.t.",
"y.t.p.s.s.s.s.:.b b ^ _  .. : : : : : : : : : : : : : : : : : : : : % % 3 _ _ A b U s.d.s.s.s.s.t.t.",
"s.t.t.i.s.s.s.:.h h ~ ] 4 : : : : : : : : : : % % % % % : : : : % % % % . ] ] m h b s.s.s.s.s.p.t.p.",
"s.s.q.0.i.<.6.o.z z | = % ; : : : : : : : : : # : : : : # # # % % % % % % . ] M z Z <.6.y.i.y.i.p.s.",
"a.s.y.3.8.0 0 M ] ] q.# % : : : # l l l : : : # : : : : : : : % % % % % % . } ] ] ~ h : P 5.q.p.s.s.",
"s.s.s.u.3.; 9 p m ' 7.. % : : % G G l : : : : . # : l l l : : : : % % % % . d...7 D 8 ; Y s.y.y.p.s.",
"s.s.s.s.t.; 6 @.#.8 X % % : % G G G k : : : . r . % : l G G : : : : . % % % . 7 y @.7 h T s.s.y.s.s.",
"s.s.s.s.s.g 6 7 y @.. % % % l G G l l l : . %.%.%.. % : G G l : : : % . # % . @.@.7 7 c T s.s.s.p.s.",
"s.d.s.s.s.k 6 @.7 @.. % % . l l l l j : . %.4.4.4.%.. % : l l l : : : . % % . @.7 @.7 b -.s.s.s.p.s.",
"s.s.s.s.s.k 8 @.@.7 . % . l l : : l : . %.4.4.4.4.4.%.. . % : l : : : % . % . 7 y @.7 U -.s.s.s.p.p.",
"s.s.s.s.s.k 7 @.y . : . : l : : l : . r %.4.4.4.4.4.4.%., . % : : # : : % . % . @.@.7 :.-.s.s.s.s.p.",
"s.s.s.s.s.l k 7 @.. . : : : # : : . > > r 4.4.4.4.4.4.%.r > . % : : % : : % . . @.7 s.u &.s.s.s.p.u.",
"s.s.d.s.s.l k   7 . . : % . : : % . r %.r r %.4.4.4.%.r r [ r . % : % % : % . . 7   d.h &.s.d.s.p.9.",
"s.s.s.s.s.l k   . . : # . % : : . . > > > r %.%.%.%.%.r > > > > . : % . % % % . .   y.h -.s.s.s.s.q.",
"s.s.s.s.s.l     % % % . % : : : .       > , %.%.%.%.%., >       . % % % . . % % %     ,.-.s.s.s.s.p.",
"s.s.s.s.s.l g V       : % : : # . *.      , %.%.%.%.%.,   *.    . % % % % .       d.U h -.s.s.s.s.p.",
"s.s.s.a.s.k g M . . % : : : : . d.i   i S r %.%.%.%.%.r S i   i d.. % % % . .   . s.h h -.s.s.s.s.s.",
"a.a.a.s.s.k g M . . : : % : : . d.f   f d.r 4.%.%.%.4.r d.f   f d.. % % % . .   . e.h h &.s.s.s.y.y.",
"s.s.s.s.t.; : M . . : : % % : . d.*.*.*.d.%.4.4.4.4.4.%.d.*.*.*.d.. % % % % .   . | k k &.s.s.s.s.s.",
"s.s.p.t.t.0 ; p . . : : % . % : . %.%.4.4.4.4.4.4.4.4.4.4.4.%.%.. % % . % % X   . { l k -.s.s.s.s.s.",
"u.t.u.s.s.k h . % . : : %   % %   %.%.%.4.4.4.4.r 4.4.4.4.%.%.%.  % %   % % X   % . k k -.s.s.s.s.s.",
"t.s.s.s.s.k h . % + t : %     %   r %.%.%.%.%.%.%.%.%.%.%.%.%.r   %     . % +   # . h h &.s.s.s.s.s.",
"s.s.s.s.s.k h X % + t : %     %     , r %.%.%.%.%.%.%.%.%.r ,     .     . % +   % . g 4 Y p.s.s.s.s.",
"s.s.s.s.s.k g @ # + t t   X .   . >     , , r r r r r , ,     > .   . .   q +   % . 0 0 T u.s.s.i.y.",
"s.s.s.d.s.k g     + q t   X X   > %.%.r                   r %.%.>   . .   q +       0 : Y p.p.s.s.s.",
"s.s.s.s.s.h g M } s   w       > r %.%.r + + , , , , , + + r %.%.r >       q   O.' Q 0 : Y y.p.s.s.s.",
"s.s.s.s.s.h g M ] ]   e   s.+ + r r r + + + q q q q q + + + r r r + + d.  +   ..s d 0 0 Y t.t.s.s.s.",
"s.s.s.s.s.T T K N N +.  2.u.* $.q q > + q $.$.t t t $.$.q + > q q $.+ d.7.  =./ N V P U :.0.t.t.u.p.",
"s.s.s.s.s.s.s.:.h e _   O.e > q d.d.+ q q q t t t t t q q q + d.d.+ > > 2.  ` m h b s.p.0.5.w.0.q.t.",
"d.s.s.s.s.s.s.:.l l ! ` , r 4.q d.d.+ q q t t t t t t t q q + d.d.+ 4.r > ) ( B l G s.p.0.0.0.0.w.q.",
"s.s.s.s.s.s.s.a.<.6.C z < %.4.4.    $.+ + q q q q q q q + + $.    4.4.%.> z x ;.6.r.s.p.u.t.t.q.5.3.",
"s.s.p.s.s.s.s.s.s.s.v h j       [   $.t d.t d.d.t d.d.t d.t $.  %.      W g l ,.s.s.s.s.s.s.t.t.q.9.",
"s.p.p.p.p.s.s.s.p.s.Y J H Q Q     Q   q d.t d.d.t d.d.t d.q   ^     Q Q / J I r.s.s.s.d.s.s.y.s.s.p.",
"u.q.u.p.s.p.p.p.s.s.s.s.y.g h h g h                           h h g g k I s.s.s.s.s.s.s.s.s.s.s.s.s.",
"s.0.t.t.p.s.p.p.s.s.s.s.r.g h h h h >   r %.%.> c > %.%.r   > g h h g g I s.s.s.s.s.s.s.s.s.s.y.t.y.",
"s.p.t.i.p.s.t.9.t.u.s.s.p.:.:.:.:.:.> r       :.:.:.      r > :.:.:.:.:.<.s.s.s.d.s.s.s.s.s.s.s.a.r.",
"p.p.y.t.p.s.s.t.q.0.t.i.s.s.s.a.s.s.  r r > s.s.s.s.s.> r r   s.s.s.a.a.s.s.s.s.s.s.s.s.s.s.s.s.s.s.",
"a.y.a.s.s.s.p.p.i.u.t.t.t.y.a.p.s.a.s.    d.s.s.s.s.s.s.    s.s.s.s.a.a.s.s.s.s.s.s.s.s.s.s.y.s.s.a.",
"y.i.s.s.s.s.p.p.p.s.p.p.p.p.p.s.s.s.s.s.s.s.s.s.s.d.s.s.s.s.s.s.s.s.s.s.s.s.s.s.s.s.s.s.s.s.s.s.s.s.",
"6.r.r.r.y.s.s.s.i.p.s.s.s.p.s.s.s.s.s.s.s.s.d.s.s.s.s.s.s.d.s.s.s.s.s.s.s.s.s.s.s.s.s.s.s.s.s.d.s.s.",
"r.r.r.r.t.i.s.s.s.s.s.s.s.s.s.s.s.s.s.s.s.s.s.s.s.s.s.s.s.s.s.s.s.s.s.s.s.s.s.s.s.d.s.s.s.s.s.s.s.s."
};
