/* XPM */
static char *result[] = {
/* columns rows colors chars-per-pixel */
"50 50 31 1 ",
"  c #DBCCB5",
". c #D6CBBA",
"X c #D9CFBB",
"o c #DCD4C5",
"O c #D4D4D4",
"+ c #D8D8D6",
"@ c #E1D7C5",
"# c #E2D9C6",
"$ c #E3DCCB",
"% c #E8DECF",
"& c #E4DED3",
"* c #E8DED1",
"= c #DDE0DF",
"- c #E6E2CF",
"; c #E6E2D4",
": c #E8E3D6",
"> c #E5E3DB",
", c #EAE6DB",
"< c #ECE8DE",
"1 c #E4E4E2",
"2 c #EBE7E1",
"3 c #E7E8E1",
"4 c #EDEAE4",
"5 c #EDEDEB",
"6 c #F0ECE5",
"7 c #F1EEEB",
"8 c #EFF0EA",
"9 c #F2F1ED",
"0 c #F6F6F5",
"q c #F6F5F8",
"w c #F8F8F8",
/* pixels */
"000w0w0000w00w00000000q0q0000000q00000000004000000",
"000000000000000ww00wq0qq00000000qq0000w0w000900ww0",
"000000w00ww00w000000000000000w0w0q0900000000300000",
"0w0w0w00000000000w0000000q0000000q0q00000000900000",
"q900000w00009q0w0000000000000q009qqq0000w0w00990w0",
"5990w0000000q9900000500000000000909q00w00000000000",
"+555w0000000q585055500000000088559553ww00000w01855",
"0,00000w00q0qq00000000000wqqw0qq0q0qqq00w0w0008$;9",
"09&000000w00w00ww00w00000000w0w0000000w0w00w0009o9",
"8004000000w00000000000000w000000q00ww0000000000054",
"630000000000w00w000000000w0ww00w00000w00000000006<",
"095400000w000000w0w0000000000000w00w0000w00w0000<9",
"00<;4000w00000000w00q00000qq000000w0000000w0q8,900",
"009;,500000000000000q00q00q80ww0000000000000,.7990",
"9009o,;;:000000000w0000000000000000000007+:9q08500",
"00095:;,,<0000000w0008000000q0w0w000005:7000900200",
"w00w99,$#+>50000000w0905055550000w002<455055500000",
"00000q8;$;&0q0w0w00000000q000000000050w0000000w090",
"00000004# <000w0w0000w000000w00w093300w0w00ww0w055",
"0q00qw09: $,9000000w0000q00q0000920000000000000096",
"000w000007##:7wq000000000000000o$0000w000000000066",
"0000000009<9539ww0qq0000000008<00000000w0w0000w00-",
"000000000969539000wq00000000;300q0w00w000w0w00000;",
"00qw00089000099008880008:%$-90000000000w0000w00000",
"00000000w00000907&,:o-$**;<:90909qq9qq000000009008",
"0009000000005800&$200000000;;998909q0q0000w00q0q00",
"5555000000069454o45500w0000<;;5339531w0ww000q05915",
"00q06+,5<6;6$#o<0w00000000005,;,2:::349000000000ww",
"0004:,;$600<o#000000000000w009:::,,*<2670000000w0w",
"9;900000w9469,00w00ww0w0w00000904666%620w0w000000w",
"00w00w000009050w000000000000000000005:3Xo909000000",
"0w00000000009000w00w0w0w00w0000000599:59908850wq90",
"0000q0000q0800000w0w000qqq000000w04<9,*09999040005",
"000000000090wq0000000000q0000000q08354,40535579009",
"w00wq09000500000w0w000000q00000w000895355995979000",
"000090090905w00w0000000580q80000000090533499525000",
"0000009001500w000000050005805q000000005079452,4489",
"w0w0000005000000w0w00000qq000q00000000000000,%o:<8",
"0000000w80000ww000000000q0000000000008000000,<72;4",
"0000000000w000000w0w000w00q00000000000000q00924<#o",
"w09000000000000w0000000000000000w000000000w00966<,",
"09077000900ww00000qq000000w00000q00w00w0q000005000",
"2:5906909w00qw0000000000w000w0q00000w0w0w000000000",
"0,4,000900000900000000000000q0qq0000w00000w00099<3",
"00;9707640000500000000w0000000099009qq0000w0000083",
"08030002,::000000q9000000ww0009q009090q0w00000900q",
"0900097494385300000000000000000000q000000000000000",
"4500000500089850000000w00w000w0w00090w00w0q0000000",
"OOOO00w0990w00000000000ww00000000qqqq0q00000000w00",
"+1113700008w00000000w000000qw0000000q00000000000w0"
};
