/* XPM */
static char *result[] = {
/* columns rows colors chars-per-pixel */
"50 50 67 1 ",
"  c #000000",
". c #373737",
"X c #297140",
"o c #4E4E4D",
"O c #515151",
"+ c #5A5A5A",
"@ c gray46",
"# c #7A7A7A",
"$ c #964B1F",
"% c #96631F",
"& c #995127",
"* c #9A5228",
"= c #B36739",
"- c #AB714F",
"; c #AD7553",
": c #AF7858",
"> c #B17B5C",
", c #4A957B",
"< c #6CA761",
"1 c #EA9777",
"2 c #EA9979",
"3 c #A2D869",
"4 c #AFDD7F",
"5 c #F4DD4A",
"6 c #F4DE54",
"7 c #72AB97",
"8 c #74AD99",
"9 c #7CB19F",
"0 c #69C192",
"q c #808080",
"w c #8B8B8B",
"e c #9A9A9A",
"r c #84B29F",
"t c #87B4A0",
"y c #A6A6A6",
"u c gray67",
"i c #EBA185",
"p c #8DDD9F",
"a c #BCF797",
"s c #BFF79C",
"d c #98DDA4",
"f c #B0DDB3",
"g c #A7F4AA",
"h c #F9C19D",
"j c #F9C3A0",
"k c #CDCDCD",
"l c #DADADA",
"z c #E3DBCB",
"x c #FBDCC8",
"c c #E5DFD2",
"v c #E0DFDE",
"b c #E6E1D4",
"n c #E8E2D5",
"m c #E6E4DA",
"M c #EAE6DC",
"N c #ECE8DF",
"B c #E2FFD5",
"V c #E4E4E3",
"C c #E9E7E1",
"Z c #EDEBE4",
"A c #EEEEEB",
"S c #F0EEE7",
"D c #F0EFEA",
"F c #F2F1EE",
"G c #F0EFF0",
"H c #F5F5F5",
"J c #FDFDFD",
/* pixels */
"HHHHHHHHHJHHHHHHHHHHHHHHHHHHHHHHHHHHJHHHHHHAHHHHHH",
"HHJHHHJHHHHHHHHHHHJHHHHHHHHHHHHHHHHHHHJHHHHAFHHHHH",
"HHHHHHHHHHHHHHHHHHHHHHGklkGHHHHHHHHHHHHHHHHHZHHHHH",
"HHHHHHHHHHHHHHHJHHHHHGq:7:qGHHHHHHHHHHHHHHHHHHHHHH",
"HHHHHHHHHHHJHHHHHHHHHH#7qqqHHHHHHHHHHHHJHHHHHHHFHH",
"GGHHJHHHHHHHHHHHHHHHHOOO....yHHHHHGHHHHHHHHJHHHHHH",
"mAGGHHHHHHHHHAAAHGueOOOO.OOOOOeGAGGAHHHHHHHHHHZAFH",
"GZHHHHJHHHHHHHHHk#####OOOOO####OyHHHHHHHHHHHHHFbbH",
"HAmHHHHJHHHHHHHuyy######O########oHHHHHHHHHJHHHZzF",
"AHFAHHHHHHHHHHuyy######OOO#####O##O@HHHHHHHHHHHFCD",
"AZHHHHHHHHHHy###################OO#O+HHHHHHHHHHHZZ",
"HZZAGHHHHHJH##Owww#############w#OOO.HHHHHHHHHHFZF",
"HFNMAHHHHHH+OO#wyw#yy#########ww#OOOO.JHHJHHHFZFFH",
"HHAzbZHHHHH.OO#ww#wyyw###@##w#ww##OOO.JHHHHDMbZFHH",
"HHHSzbMNZFH.O##w##wywwwwwwwww#w###OOO.JHFCMCAAFAFH",
"HHHHZbmtmm.OO#####www#wyyyww#######OOO.JH,JHHHHZFH",
"HHHJHArf,c.OO#####w####www#########OOO.J,p,HGHHHFH",
"HHHHHH9pd,.OO###########w######@###oOO.,pp,JHJHHFH",
"HHHHHH8,pp,OO#########@############OOO,pp,,JHHHHFF",
"JHHHHH9p,pp,O######################OO,pp,p,JHHHHHA",
"HHHHHJ8pp,gg0####@#################O0gg,5p,JHHJHFD",
"HHHHHH86pp080O############@#######OO000ppp,JHHHHFn",
"HHHJHHH8ppg500##O###############O#O00ggpp,JHHHHHHM",
"HHHHHHH ,,gg0g0#O###############O#0g0g5,, JHHHHHHF",
"HHHHHHH pp000gg0O###########o###O0gg000pp JHHHHHHH",
"HHHHGHHH pgg0gg0OO##O###O###OO#OO0gg05gp JHHHHFHHH",
"GGGGHHHH pp5g0gB7OO#O##OOO##OO#O0Bg0ggpp JHHHHHHAA",
"HHHHSmNSo pg00gBB8OOOO<OOO#OOOO7B5g00gp .JHHHHHHHH",
"HHFNSSNMo ,0gg0BBB0oOOOOOOOOOO0BBB0gg0, .JHHHHHHHH",
"SSSHHHHOOO pg6g05B0OOOOOOOOOOO0BB0gggp OO.HHHHHHHH",
"SHHHHHHOOOO ggg0pBB0OOOOOOOO+0BBp5ggg OOO.HHHHHHHH",
"HHHHHHH+OOO   0gBpBB8OOOOOOO0BB0Bg0   OOO.FFAHHHFH",
"HHHHHHH+OO .OO  gBppB0OO%OO0BppBg  OO. OO.HGAAHHAF",
"HHJHHHH+O <.OOOO gBBp0OO OO0pBBg OOOO.< O.ZZAFFHHH",
"HHHHHHH   <.OOO    BBB, = ,BBB    OOO.<   FZAAFHHH",
"HHHHHHHHH <.OO aX.O  B,111,B  O Xa OO.< CZHFZCZHHH",
"HJHHHGGGHZ .O $XJ.OO  hxxxh .OO JX$ O. HGDZDCMZZSF",
"HHJHHHHHHH H 2xXJ.OO XXXXXXX.OO JXx2 H HHHHFNcnMZZ",
"HHHHHHJHAHHH;hxx X.O 3333333.O X xxh>HFHHHHFnnMMnN",
"HHHHHHHHHHHHH   hXa  <<<<<<<  aXh   HHHHHHHHDZZNcz",
"HHHFHHHHHHHHHHH   a3J3HJ3JJ3Das   HHHHHHHHHHHHZSNm",
"HFFFFHHHAHHHHHHHHH  H3JJ3JJ4H  HHHHHHHJHHHHHHHDHGG",
"SNSFFFFHHHHHHHHHHH;&         &>HHHHJHHHHHHJHHHHGHH",
"HMNZHHFFHHHHHHHHHH-xx2j:H:h1xx;HHHHHHHHHHHHHHHHGZA",
"HFZAFHZnZSHHHHHHHH;xxi HHH ixx>HHHHGHHHHHHHHHHHHGZ",
"FFAZFHHZNNNAHHHHHH 12 HHHHH 22 HHHGHHHHHHHHHHHHHGH",
"GAHAHHFFFZZZZSGGHHH  HHHHJHH  HHHGHGHHHHHJHHHHGHHH",
"FFHHHHFFFHFFFAHHHHHHHJHHHHHHHHHHHHHHHHHHHHHHHHHHHH",
"vVVVAHHHAFHHHHHHHHHHHHHHHJHHHHHHHHHHHHHHHHHHHHHHHH",
"VVVVZAHHHHFHHHHHHHHHHHHHHHJHHHHHHHHHHHHJHHHHHJHHHH"
};
