/* XPM */
static char *result[] = {
/* columns rows colors chars-per-pixel */
"50 50 66 1 ",
"  c #000000",
". c #101010",
"X c #373737",
"o c #297140",
"O c #3C7E51",
"+ c #444342",
"@ c #515151",
"# c gray35",
"$ c #7A7A7A",
"% c #964B1F",
"& c #A05D36",
"* c #B36739",
"= c #B4683A",
"- c #AD7453",
"; c #4A957B",
": c #5F9470",
"> c #6CA761",
", c #75AC6A",
"< c #EA9777",
"1 c #EA9A7B",
"2 c #A2D869",
"3 c #F4DD4A",
"4 c #5F44B9",
"5 c #826DC9",
"6 c #73A182",
"7 c #78A486",
"8 c #69C192",
"9 c #8B8B8B",
"0 c #939393",
"q c #9B9B9B",
"w c #AFA992",
"e c #A6A6A6",
"r c gray67",
"t c #B5B5B5",
"y c #D2AD94",
"u c #ECAC94",
"i c #8DDD9F",
"p c #BCF797",
"a c #A7F4AA",
"s c #F9C19D",
"d c #DEC6B5",
"f c #A596D8",
"g c gray79",
"h c #DDD4C4",
"j c #E2D9C5",
"k c #E4DCCC",
"l c #FBDCC8",
"z c #E3DED0",
"x c #E0DFDE",
"c c #E6E1D4",
"v c #E8E2D5",
"b c #E7E4DB",
"n c #EAE6DC",
"m c #ECE8DF",
"M c #E2FFD5",
"N c #E4E4E3",
"B c #E9E7E1",
"V c #EDEBE4",
"C c #EFEEEB",
"Z c #F0EEE7",
"A c #F0EFEA",
"S c #F2F1EE",
"D c #F0EFF0",
"F c #F5F5F5",
"G c #F8F7F4",
"H c #FDFDFD",
/* pixels */
"FFFHFFFFFFFFFFFFFFFFFGFFFFFFFGHFFHFFFFFFFFFCFFFFFG",
"FFFFFFFFFHFFHFFFFHFFGGFFFGFFFFFFFFFFFFFFFHFCSFFFFG",
"GGFFFFFFFFFFFFFFFFFFGGGGGFFFHFFFFFFFFFFFFFFDCFFFGF",
"GGFFFFFHFFFFFFFFHFFFGStw0qrFFFFFFFFFFHFFFFFFSFFFFF",
"FFFFFFFHGFHFFFGGFFFFgt64$64qtFFFFFFDFFFFFGFFFFSFFF",
"DDFFFFFFGGFFFGGGFFFFZ4-,$-,6FFFFFFFFFFFFFFFFFFFFFF",
"NCDDFFFFFGFFFCZZDD@X#XXXXXXXXHDDDDDDDFFFFFHFFFNCDD",
"DVDHFFFFFFFFFFGZr@@@@@@@@@@@@XXXFFFFFFFFGFFFFHCcbF",
"FCbFFFFFFGGFFFF0$$$$$@$$$$$$$$$@XXFGFFFHFFFFFFFZhS",
"CFSCFFFFFGFGFF4,$$$$$$$$$$$$$$$e@@XHFGFFFFHFFFFSZC",
"CVFFFFFFFFFFFX@$$$$$$$$$$$$$$$$$9$@XHGFGFFFGFGFFVZ",
"SZVCFFFFFFFHXX$$-$$$$$$$$$$$$$$$99$@XHFFFFFFGGFSVS",
"FFmnZFFFFFGFX$$$:$$$$$$$$$$$$$$999$$XHFGFHFFFFVCSF",
"FFCkcCFFFFFX$$$$$$$$$$$$$$$$$ee$9$$$@XHFFFFCncmSFF",
"FFFChvnmVCXX$$$$$$$$$$$$$$$49ee$$$$$$XHHCBC;SSCCSF",
"FFFSZcbbbX@X@$$$$999$$$$$$$999$$$$$$$@XXHH;i;FFCSF",
"FFFHDCbzhX$@X$999$$ee$$$$$$$$$$$@$$$$@XXH;ii;HFFSF",
"FFFFGGDBjX@$@X@$9w99ee9$@@@@$$$$$$@$$$@X;ii;;HFFSF",
"FFFFFFFVjX@$@*X@$ee99999$@@@@@$$$$@$$$@;ii;i;HFFSS",
"FFFFFFFFn+@@@*<X@$99$$$99$X@@@@$$$$@$$7aa;ii;HFHFS",
"FFFFGGFFFVX@@*ssX@$9$$$$$$$X@@@@$$$@$@888iii;HFFSC",
"HFFFGGFFFAX@@*ssuX@$$$$$@$$XX@@@@@@@$88a3ii;HFFFSv",
"FHFFFFFFDCZX@*<ss1X@$$$$@@$$$XXXXXXX8a8aa;; GFFFGm",
"FFFFFFFDFFG#@@*ss%%X@$$$@@@X$$$XXl<8aa388ii HFFFFS",
"FFFFFFDFFFFFX@*ss%  X@$$@@@@X@@@@  8aa8aai HFFDFFS",
"FFFDFFFFFGFFFX*ss<f wX$$@@$@@X    8Ma8a3ii HFFFFFF",
"DDDFFFFFFFFnmn*ss< 4HX@$@@$$@XXs 8M3a88ai HFFFDFCC",
"FFFFCbVVnVmnkj*ll< 5HwX$@@$$@@X 8MMM8aa8; HFFHFFGF",
"GFCVVVVnmZZVkysllsffHsX@@@@$$@XX8MM83aai HGGFFFGGF",
"CVCFFFFFFSCVVyslllllssX@@@@$$@@XMMi8aaa XHGGFFGFFF",
"CFFFGGFFFFFSFd1slllsssX@@X@@$@@ MiMa8  @XHFFFFFFFF",
"FFGFGGFFFFFGFF <ssssssX@@ X@$$@ iMa  X@@@XGDCFFFFD",
"FGGFFFFFFFFDFFF =1ssssX@X  @@$@ Ma @XXX@@XGFSCFGCC",
"FFFGFFFFFFCFFFFF  ==<<X@ < X@$@o  @@X   X@XGCAFFFF",
"FFFFFFFFFDDFHFFFFH    XX    X>>o X@@@ HH   FVCCFFF",
"FFFHFFFFFFFFFFFGFFFFG%< o%ss o>>  X@@ HVZSFFCmCDFF",
"FFFFFFFDDCDFFFFFFFGFGo> o%<<< o> H  X FDDDVVBnVVCS",
"FFFFFFFFFFFFFFFFFFFF:,22>o%1oo > HFH  FFFFFAnzvmmZ",
"FFFFFFFFCFFFFHFFFHGG:>2>>>o>po o HGFFFFFFGFFvvnnvm",
"FHFFFFFFFFFFFFFFFFF6O>22>oHHo%% GGGFFFFFFFGFZVVmzk",
"FFSSFFFFFFFFHFFFFFF7po>>ooHHol< HFFFFFFFGFFFFDVAVb",
"FSFSSFFGDFFFFFFFHFF p2HH2p  lls%HFFFFFFHFFFHFFAFSS",
"ZnVSFSSSSFFFFFFHFFFF 2HH2p s   HFFFHFFFFFFFFFFFFFF",
"FnVVFFSSFFFFFFFFFFFFH       %&FFFFFFFFFFFFFFFFFDVC",
"FSVCSFVbVZFFFFFDFFFFFFF <ss<su-FDFFFFFFFFFFFGFFDDN",
"SSCVSFFVmnmCFFFDFFFDFFFF  1<ls-FFDFDDFFFFFFHFGFFFD",
"DDDSGFSSSVVVZCDDFDDFFFFHFG  ls FDFDDFFFFFFFFFFDDFF",
"SSFFFFSSSFSSSSDFFFFFFFFFFGGG. FFFFFFFFFFHFFFFFFGFF",
"xNNNCFFFCSFFFFFFFFFFFFGFFFFFFFFFFFFFFFFFFFFFFFFFFF",
"NNNNVCFFFFSFFFFFFFFFFFFFHGFFFHFFFFHFFFFFHFFFFFFHFF"
};
