/* XPM */
static char *result[] = {
/* columns rows colors chars-per-pixel */
"50 50 68 1 ",
"  c #000000",
". c #373737",
"X c gray22",
"o c #297140",
"O c #434343",
"+ c #4C4C4C",
"@ c #515151",
"# c gray36",
"$ c #6A6A6A",
"% c #7A7A7A",
"& c #964B1F",
"* c #964C20",
"= c #B36739",
"- c #B37E5F",
"; c #408055",
": c #4A957B",
"> c #51987F",
", c #6CA761",
"< c #79AF6F",
"1 c #B98A6E",
"2 c #BB8D72",
"3 c #EA9777",
"4 c #A2D869",
"5 c #F4DD4A",
"6 c #5F44B9",
"7 c #826DC9",
"8 c #62A28C",
"9 c #7BB09D",
"0 c #8B8B8B",
"q c gray59",
"w c #9C9C9C",
"e c #83B19E",
"r c #88B49F",
"t c #AFA992",
"y c #A6A6A6",
"u c #B5B5B5",
"i c gray74",
"p c #8DDD9F",
"a c #BCF797",
"s c #8FDDA1",
"d c #A3DEAC",
"f c #A0C1B0",
"g c #ACE0B4",
"h c #F9C19D",
"j c #F9C5A4",
"k c #A596D8",
"l c #C1C1C1",
"z c #C2D2C6",
"x c gray84",
"c c #E3DBCB",
"v c #FBDCC8",
"b c #E5DFD0",
"n c #E0DFDE",
"m c #E6E1D4",
"M c #E8E2D5",
"N c #E6E4DB",
"B c #EAE5DB",
"V c #ECE8DF",
"C c #E4E4E3",
"Z c #E9E7E1",
"A c #EDEBE4",
"S c #EEEEEB",
"D c #F0EEE7",
"F c #F0EFEA",
"G c #F2F1EE",
"H c #F0EFF0",
"J c #F5F5F5",
"K c #FEFEFE",
/* pixels */
"JJJJJJJJJJJJJJJJJKJJJJJJJJJJJJJJJJJKJJJJJJJSJJJJJJ",
"JJKJJJJJJJJJKJJJJJJJJHJJJJJJJJJJJJJJJJJKJJJSGJJJJJ",
"JJJJJJKJKJJJJJJJJJJJJuwwwuJJJJJJJJJJJJJJJJJJAJJJJJ",
"JJJJJJJJJJJJJJJJJJJlu%<,%0lxJJJJJJJJJJJJJJJJGJJJJJ",
"JJJJJJKJJJJJJJJGJJSHq8-60%wJJJJJJJHJJJJJJJJJJJJJJJ",
"HHJJJJJJKJJJJGJJJJ.....@.XXXXJJJJJJJJJJKJJJJJJJJJJ",
"NSSHJJJJJJJJJHHH#XX+++@@.@@@@X@yHHHHHJJJJJJJJJASJH",
"HAJJKJJJJJJJJJJ#@61,-6,@@@%%%%@@$JJJJJJJJJJKJJSmMJ",
"JSNJJJJJJJJKJJ6,%00%%%%%@%%%%%%%%+nJJJJJJJJJJJJAcG",
"SJGSJJJJJJJJJwX1%%%%%%%%%%%%%%%%%%XuJJJJJJJJJJJGAD",
"SAJJJJJJJJJJJ.%%%%%%%%%%%%%%%%%%%%@@yJJJJJJKJJJJAA",
"JAASJJJJJJJJw%%%%%%%%%%@@@@@%%%%@@@@XJJJJKJJJJJGAG",
"JGVNSJJJJJJ>@-%%%%%%%%%@%%%%++@@@@@@@XJJJJJJJJASHJ",
"JJScmAJJJKJ@@6%,+000%%%+%%%%%%6@@@@@@XJJJJJSBbVGGJ",
"JJJDcMzBfSH.@-6@yy0%%%%.+%000%1,%@@@@XKJ:g8BSGGSJJ",
"JJJJAmrpd8.+@,+tyy0%%%.3.@%0yy%$%%.@@@.:5p:JJJJAGJ",
"JKJJJSe:5p.@@@0yy000%.hhh.@%yy0%%%@.@@.pp::JJJJJGJ",
"JJJJJJ9s:p.@@.00000%.hvvvh.@%000%%%.@@.p:p:JJJJJGJ",
"JJJJJJ8sp:.@.00%%0%.hvvvvvh..@%0%%%@.@.:5p:JJJJJGG",
"JJJJJJ:s5.%.%0%%0%.3hvvvvvvh=.@%%+%%@.@.pp:KJJJJGH",
"JJJJJJJ>p..%%%@%%.**3vvvvvvh3&.@%%@%%@..p:KJJJJKGF",
"JJJKJJJ :..%@.%%+.3h33hvvvh33h3.@%@@%@..: KJJJJJGB",
"JJJJJJJ XX%@.@%%XX**&3hhhhh3&&&&.%@.@@@.. KJJJJJJB",
"JJJJJJ  @+@.@%%%X   &=hhhhh=&   .@@@..@@@  KJJJJJG",
"JJJHJJJJ   %@%%+Xk   =hhhhh= k  X@@@@.   KJJJJJJJJ",
"JJJJJJJJ..@%%%%.K6 6t3hhhhh3t6 6K.@@@.. XKJJJJJJJJ",
"HJHGJJJJ..%%@%%.K7 7K3vhhhv3K7 7K.@@@.. XKJJJJJJSS",
"JJJJDNZA..%%@@%.KkkkKhvvvvvhKkkkK.@@@@. .JJJJJJJJJ",
"JJGDADVV..%%@.@%Xhhvvvvvvvvvvvhh.@@.@@. .JJJJJJJJJ",
"DDDJJJJ.@.%%@ @@ hhhvvvv3vvvvhhh @@ @@. @.JJJJJJJJ",
"DJJJJJJX@o4%@  @ 3hhhhhhhhhhhhh3 @  .@o @.JJJJJJJJ",
"JJJJJJJO@o4%@  @  =3hhhhhhhhh3=  .  .@o @.GGSJJGJJ",
"JJJJJJJ+@o44 .. .&  ==33333==  &. .. ,o @XGJSFJJSF",
"JJJJJJJ  ;,4 .. &hh3         3hh& .. ,o   ZASFJJJJ",
"JJJJJJJGJH ,   &3hh3oo=====oo3hh3&   , ASJFAAFSJJJ",
"JJJKJJJJJJ < Joo333ooo,,,,,ooo333ooK o AZAHJSZSGJJ",
"JJJJJJHHJAG JJoa,,*o,aa444aa,o*,,aoKJ SJHFASZBAADG",
"JJJJJJJJJJJ J1&,KKo,,,44444,,,oKKo&*J JJJJJFVcMVAA",
"JJJJJJJJSJJJ13v,KKo,,4444444,,oKKov3&JGJJJJGMMVBMV",
"KJJJJJJKJJJJ1hvv  aoo,,,,,,,ooa  vvh&JJJJJJJFAAVmc",
"JJGJJJJJJJJJJ   j a4K4KK4KK4K4a j   KJJJJJJJJJADZB",
"JJGGGJJJHJJJJJJ  J ,K4KK4KK4K, J  JJJJJJJJJJJJFJHH",
"DVAGGGGJGJJJJJJJJJ             JJJJJJJJJJKJJJJJHJJ",
"JMVAJJGGJJJJJJJJJJ& 3hh*J*hh3 &JJJJJJJJJJJJJJJJHAA",
"JGZGGJDMADJJJJJJJJ&3   JJJ   3*JJJHJJJJJJJJJJJJJSA",
"GGGAGJJAVVVSJJJJJJ 33*JJJJJ*33 JJJHJJJJJKJJJJJJJJH",
"HSHJJJGGGDAASAHHJJJ  JJJJJJJ  GHJJHHJJJJJJJJJJHJHJ",
"HSJJJJGGGGGGGGGJJJJJJJJJKJJJJJJJJJJJJJJJJJJJJJJJKJ",
"nNCCHJJJFGJJJGJJJJJKJJJJKJJJJJJKJJJJJKJJJJJJKJJJJJ",
"CCCCZSJJJJJJJJJJJJJJJJJJJJJJJJJJJJJJJJJJJJJJJJJJJJ"
};
