/* XPM */
static char *result[] = {
/* columns rows colors chars-per-pixel */
"50 50 78 1 ",
"  c #010101",
". c gray3",
"X c #111111",
"o c #373737",
"O c gray23",
"+ c #297140",
"@ c #307646",
"# c #434343",
"$ c #494949",
"% c #515151",
"& c #5A5A59",
"* c #626262",
"= c #686868",
"- c #767676",
"; c #7A7A7A",
": c #964B1F",
"> c #B36739",
", c #A66742",
"< c #A86B48",
"1 c #BA784E",
"2 c #AD7352",
"3 c #AF7959",
"4 c #4D8860",
"5 c #5C926E",
"6 c #4A957B",
"7 c #6C9C7B",
"8 c #6CA761",
"9 c #7EB174",
"0 c #EA9777",
"q c #A2D869",
"w c #F4DD4A",
"e c #5F44B9",
"r c #826DC9",
"t c #74A790",
"y c #69C192",
"u c #8B8B8B",
"i c #AFA992",
"p c #8EBCAC",
"a c #93BAA7",
"s c #92BDAD",
"d c gray65",
"f c #AAAAAA",
"g c #A1BFAC",
"h c #B1B1B1",
"j c #D1AA91",
"k c #8DDD9F",
"l c #BCF797",
"z c #97DFA7",
"x c #9ADDA5",
"c c #96C0B1",
"v c #A6DDAE",
"b c #A7F4AA",
"n c #F9C19D",
"m c #A596D8",
"M c #C1C1C1",
"N c #D4DBD1",
"B c #E3DBCB",
"V c #FBDCC8",
"C c #E5DFD3",
"Z c #E0DFDE",
"A c #D3E2CB",
"S c #E6E1D4",
"D c #E8E2D5",
"F c #E6E4DB",
"G c #EAE6DC",
"H c #ECE8DF",
"J c #E2FFD5",
"K c #E4E4E3",
"L c #E9E7E1",
"P c #EDEBE4",
"I c #EFEEEC",
"U c #F0EEE7",
"Y c #F0EFEB",
"T c #F2F1EE",
"R c #F0EFF0",
"E c #F5F5F5",
"W c #F8F8F6",
"Q c #FEFEFE",
/* pixels */
"EEEEEEEEEEWEWEEWEWEEWWWWWEEEWEWEEWEWEEEWEWEIEEEEEE",
"EEWEEWEEEWEEEEEEEEWEWWWTTWEEEEWEEEEEWEEEEEWITEEEWW",
"WWEEEEEEEEEEWEEWEEEETWWUWWWWEEWWEEEEEWEWEEEEIEEEWE",
"WWWEEEEEWEEEEEEEEWEEWWWvu;u;EEEWEEWEEEEEEEEEREEEEW",
"EEEEWEWEEEEEEEEEEEREEMfe;;9ee9TTEEEEEWEEEEEEEEEEEE",
"RREEEEEEEEEEEEEREEEEEoooOoooO%oOoRREEEEWEWEEEEEERE",
"KIRREEWEWEEEERRRERRRoo%%%;3%o$%%OQRRREEEEEEEWEIIRR",
"RPEWEWEEEEEEEEEEEEOoo%;;;;8e%7-3-%%EEEEWEWEEEEPCFE",
"EYFEEEEEEWWEEEEE*o$;;;;;;;;;%;;;;;$QEWWEWEWEEWEPBY",
"IEEYEEEEWWEEWEW&%%d;;;;;;;;;;;;;;;;%QWWWEWEEEEETLY",
"YPTEEEEEEEWEEE#%e9;;;;;;;;;;;;;;;;;%oQEEEEWEEEEEPP",
"EPPYEEWEEWEEE$%;uu;;;;-;;;35;;;;;;;;ooQEEWEEEWETPT",
"ERHFYEEEEEEWEo;;uuu;;;;;;;;;;;;;;;;;;oQEEEWEETPYTE",
"EEIBSIEWEEEEo%;;3u;dd;;;;;;-;;;;;;;;;;oQEEWIGCPTEE",
"EEEUBDNHPEREo;;;;;;ddu;;;;;;;;;;;;;;;;ooELKLIRRITE",
"EEEEPaAaCFoo%;;;;;;;uuu;;;;;;;uuu;;;;%o%oEEEEEEIEE",
"EEEEIpkxtFoo%;;;;%;;;;;;;;;;;dd-;uuu;o%;oWIRREEETE",
"WEWERptkz6o%;;;%;;-;;;%%%%;udduudu;%o%;%oQWEWEEETE",
"EEEEEpk6kk6%;;;%;;;;%%%%%;uuuuudd;$o>%;%oQWEEEEWTT",
"WEEEEpkk6bbt;;%;;;;%%%%o;uu;;;uu;%O0>%%%oQWEWEEEEI",
"EWEEWckkkyyy%;%;;;%%%%o--;;;;;u;%onn>%%oQEEEEEEETY",
"EEWEEEckkwbyy;%%%%%%%oo;;%;;;;;%onnn>%%OQEWEEEWETF",
"EEEEWW 66bbybyooooooo;;;%%;;;;%o0nn0>%oQEEEEEEEEEG",
"EWEEWW kkyywbby0Voo;;;o%%%;;;%o::nn>%%oQWEWEEEEEET",
"EEERWEE.kbbybby  %%%%O%$%%;;%o  :nn>%oQEEEEEEEEEEE",
"EEEEEEE kkwbybJy    o%%;%%;;oi m0nn>oQEWEEEEEEEEEE",
"RRRREEEE kbyybwJy noo%;;%%;%oQe 0nn>QEEEEEWEEERRII",
"EEWEPFPI 6ybbyJJJy o%%;;%%;oiQr 0VV>QPTEWEEEEWEWEE",
"EETPPPHHP kbbwyJJyoo%;;%%%%onQmmnVVn>UPPEEEWEWWEEE",
"YPYEEEEEE& bbbykJJo%%;;%%%%onnVVVVVn1HPTEEEEEEWWEE",
"UEEWEEEEE&%  ybJkJ %%;%%o%%onnnVVVn0jHHCGIEEEEEEEE",
"EEEEWEWE=%%%o  bJk %;;%o %%onnnnnn0 UGPETERRYTEETE",
"EEEWEEEE%%%ooo% bJ %;%%  o%onnnn0> PYLGYEEREIIEEIT",
"EEEEEEE-%$   o%%  +%;%o 0 %o00>>  TPYPPPEPPPIYEEEE",
"EWEWEEE.. RE %%%o +88o    oo    EEETRPPPPRYPIPIEEE",
"EEEEEEEEEERE %%#  88+ nn:+ 03EEEEEEEEERPPPREIPIYEE",
"EWEEEEERRPRR.#  E 8+ 000:+ 85EEEEEWEREIERYPYLGPPPT",
"EEWEEEEEEEEEX.WEE 8 ++0:+8qq97EEEEWWREEEEEEYGCSGPP",
"EWWEEEEEREEWEEWEE + +l8+888q87EEWEWEEEREWEEYGDGGSH",
"WEEEEEEWREEEWEWEEE ::+QQ+8qq8+5EEEEEEEEEEEEEUHUHCB",
"EEETEEWEEEEEEEEEWE 0V+QQ++88+l4EEWEWWEEEWEEEWRYYPF",
"ETTTTEEEEEEEEEWWEE2nVV  lqQQql EEEEEEEEEEEEWEEYRRR",
"UHUTETTTEEEEEEWEWEW   n lqQQq EEEWEEEEEEEEWEWEEEEE",
"EGPPTETTEEEEEEEEEEEE::       EEEEEEEEWEEEEEEEEERPP",
"TTPYTEPDPYEEEEEEEEE,0n0nn0 EEEEEEEEREEEEWEWEEEERRP",
"EIIPTEEPHGHYEERREER<nV00  EEEEREEEREEEEEEEEEEWEEER",
"RIREEETTTPPPPIREERR.nV  WWEEEEEEEERREEWEEEEEEERREE",
"IYEEEETTTEIYERREEEWW  EEEWWWEEEEEEEEEEEEEWEEEWEWEW",
"ZKKKIEEEITEEEREWEEEEWEWEEWEWEEEWEEEEEEEWEEEEEWEEEW",
"KKKKPYEEEERWEWEEEEEWEEEEEWEEWEEEEEEEEEEEWEWEEEWEEE"
};
