/* XPM */
static char *result[] = {
/* columns rows colors chars-per-pixel */
"50 50 20 1 ",
"  c #F2F1E6",
". c #EAE9DD",
"X c #B5AFA3",
"o c #B2ACA0",
"O c #F2F0E5",
"+ c #F1F0E5",
"@ c #E9E8DC",
"# c #E8E5D4",
"$ c #E7E3D1",
"% c #E4E1D1",
"& c #DBDAD0",
"* c #D6D4CA",
"= c #B4AEA2",
"- c #E5E1CE",
"; c #E2DFCE",
": c #D8D6CD",
"> c #D3D1C8",
", c #E0DDCE",
"< c #CFCCC3",
"1 c #B3AEA2",
/* pixels */
"                     .Xoo                     .Xoo",
"                     .Xoo                     .Xoo",
"   OOOOOOOOOOOOOOO+++@Xoo   OOOOOOOOOOOOOOO+++@Xoo",
"  O#$$$$$$$$$$$$$$%&&*=oo  O#$$$$$$$$$$$$$$%&&*=oo",
"  O$--------------;::>=oo  O$--------------;::>=oo",
"  O$--------------;::>=oo  O$--------------;::>=oo",
"  O$--------------;::>=oo  O$--------------;::>=oo",
"  O$--------------;::>=oo  O$--------------;::>=oo",
"  O$--------------;::>=oo  O$--------------;::>=oo",
"  O$--------------;::>=oo  O$--------------;::>=oo",
"  O$--------------;::>=oo  O$--------------;::>=oo",
"  O$--------------;::>=oo  O$--------------;::>=oo",
"  O$--------------;::>=oo  O$--------------;::>=oo",
"  O$--------------;::>=oo  O$--------------;::>=oo",
"  O$--------------;::>=oo  O$--------------;::>=oo",
"  O$--------------;::>=oo  O$--------------;::>=oo",
"  O$--------------;::>=oo  O$--------------;::>=oo",
"  O$--------------;::>=oo  O$--------------;::>=oo",
"  +%;;;;;;;;;;;;;;,::>=oo  +%;;;;;;;;;;;;;;,::>=oo",
"  +&:::::::::::::::::>=oo  +&:::::::::::::::::>=oo",
"  +&:::::::::::::::::>=oo  +&:::::::::::::::::>=oo",
"..@*>>>>>>>>>>>>>>>>><1oo..@*>>>>>>>>>>>>>>>>><1oo",
"XXX==================1oooXXX==================1ooo",
"oooooooooooooooooooooooooooooooooooooooooooooooooo",
"oooooooooooooooooooooooooooooooooooooooooooooooooo",
"                     .Xoo                     .Xoo",
"                     .Xoo                     .Xoo",
"   OOOOOOOOOOOOOOO+++@Xoo   OOOOOOOOOOOOOOO+++@Xoo",
"  O#$$$$$$$$$$$$$$%&&*=oo  O#$$$$$$$$$$$$$$%&&*=oo",
"  O$--------------;::>=oo  O$--------------;::>=oo",
"  O$--------------;::>=oo  O$--------------;::>=oo",
"  O$--------------;::>=oo  O$--------------;::>=oo",
"  O$--------------;::>=oo  O$--------------;::>=oo",
"  O$--------------;::>=oo  O$--------------;::>=oo",
"  O$--------------;::>=oo  O$--------------;::>=oo",
"  O$--------------;::>=oo  O$--------------;::>=oo",
"  O$--------------;::>=oo  O$--------------;::>=oo",
"  O$--------------;::>=oo  O$--------------;::>=oo",
"  O$--------------;::>=oo  O$--------------;::>=oo",
"  O$--------------;::>=oo  O$--------------;::>=oo",
"  O$--------------;::>=oo  O$--------------;::>=oo",
"  O$--------------;::>=oo  O$--------------;::>=oo",
"  O$--------------;::>=oo  O$--------------;::>=oo",
"  +%;;;;;;;;;;;;;;,::>=oo  +%;;;;;;;;;;;;;;,::>=oo",
"  +&:::::::::::::::::>=oo  +&:::::::::::::::::>=oo",
"  +&:::::::::::::::::>=oo  +&:::::::::::::::::>=oo",
"..@*>>>>>>>>>>>>>>>>><1oo..@*>>>>>>>>>>>>>>>>><1oo",
"XXX==================1oooXXX==================1ooo",
"oooooooooooooooooooooooooooooooooooooooooooooooooo",
"oooooooooooooooooooooooooooooooooooooooooooooooooo"
};
